<svg width="79" height="53" viewBox="0 0 79 53" fill="none" xmlns="http://www.w3.org/2000/svg">
<g clip-path="url(#clip0_425_263)">
<path d="M76.9768 25.37C76.9895 32.7676 76.9337 40.1603 76.368 47.5456C76.2665 48.8841 75.8149 49.9505 74.818 50.903C72.1568 53.4464 71.9691 54.1145 67.7021 52.1896C58.8155 48.1815 49.665 44.8464 40.1265 42.6048C38.6449 42.2559 37.138 42.0184 35.654 41.6795C34.8396 41.4914 34.5327 41.7413 34.2029 42.5132C32.7721 45.8632 30.3037 48.4215 26.8942 49.7501C21.7241 51.764 15.8919 47.9291 15.3972 42.4464C15.2264 40.5529 14.1617 39.5946 12.2033 39.5715C9.7476 39.5468 7.29446 39.5344 4.83878 39.5097C2.42623 39.4849 1.05633 38.2553 1.03857 35.9073C0.997981 30.3949 1.03857 24.8826 1.02589 19.3702C1.02335 18.3261 1.37851 17.4503 2.11166 16.7204C2.94375 15.8916 3.78599 15.0726 4.65359 14.2784C5.41465 13.5807 6.39134 13.5114 7.37056 13.5164C12.0942 13.5436 16.8127 13.4224 21.5288 13.1329C37.1152 12.1754 52.1055 8.84028 66.3677 2.55351C68.1613 1.76178 69.9599 0.972534 71.7788 0.237716C74.3486 -0.798946 76.0991 0.262459 76.3274 2.98401C76.954 10.4361 76.9718 17.903 76.9768 25.3724V25.37ZM75.0996 25.563C75.0996 22.1907 75.1452 18.8185 75.0869 15.4487C75.0158 11.3911 74.9296 7.33106 74.5491 3.28338C74.3918 1.61086 73.8692 1.29417 72.3318 1.96714C70.4317 2.79597 68.5393 3.63965 66.6265 4.44127C55.9209 8.92688 44.845 12.1482 33.2896 13.749C24.7658 14.9291 16.1938 15.3176 7.59381 15.2755C5.70639 15.2656 5.11784 15.8371 5.11784 17.6606C5.1153 22.8092 5.11784 27.9604 5.11784 33.1091C5.11784 35.0141 5.70131 35.5486 7.65469 35.5263C11.0008 35.4917 14.3495 35.4595 17.693 35.6549C19.3699 35.7539 19.4079 35.7762 19.4029 37.4635C19.4003 38.5893 19.4003 39.7125 19.6413 40.8209C20.339 44.0249 23.4948 46.4249 26.7724 46.2467C29.9714 46.0735 32.4829 43.6761 32.8152 40.4449C32.8863 39.762 32.8761 39.0668 32.8558 38.379C32.8279 37.4264 33.282 37.0504 34.2308 37.1691C34.8955 37.2508 35.5627 37.2978 36.2248 37.3918C43.7668 38.4631 50.9944 40.6774 58.1255 43.2184C63.014 44.9626 67.801 46.9494 72.5323 49.0672C73.6738 49.5794 74.2928 49.2478 74.5009 48.0603C74.544 47.8104 74.5465 47.5555 74.5668 47.3032C75.1757 40.0688 75.1173 32.8171 75.1021 25.5679L75.0996 25.563Z" fill="#FEFCFF"/>
<path d="M18.2281 17.6059V33.5418C18.2281 34.1109 17.7563 34.5711 17.1728 34.5711H16.1175C15.8942 34.5711 15.6811 34.5018 15.5112 34.3806C15.4883 34.3682 15.4655 34.3533 15.4477 34.336C15.3082 34.2321 15.1915 34.0936 15.1154 33.9278L11.1909 25.2238V33.5418C11.1909 34.1109 10.719 34.5711 10.1356 34.5711H9.08024C8.49676 34.5711 8.0249 34.1109 8.0249 33.5418V17.6232C8.0249 17.0542 8.49676 16.594 9.08024 16.594H10.0671C10.4704 16.594 10.8586 16.8241 11.0336 17.2076L11.1884 17.549L15.0621 26.1442V17.6035C15.0621 17.0344 15.534 16.5742 16.1175 16.5742H17.1728C17.7563 16.5742 18.2281 17.0344 18.2281 17.6035V17.6059Z" fill="#FEFCFF"/>
<path d="M26.1154 15.4912C21.7748 15.4912 21.0366 19.67 21.0366 20.2366C21.0366 20.2564 21.0366 20.3158 21.0366 20.338V21.637H21.0392V38.6244H21.0366V39.9084C21.0366 39.9406 21.0366 39.9703 21.0366 40.0049C21.0366 41.2148 22.1579 44.9433 26.0596 44.9433C29.9613 44.9433 31.1333 41.1752 31.1333 40.0396C31.1333 40.0049 31.1333 39.9431 31.1333 39.9084V20.343C31.1333 20.3207 31.1333 20.1525 31.1333 20.1302C31.1333 19.6057 30.3266 15.4962 26.1103 15.4962L26.1154 15.4912ZM27.9724 38.6244V38.6293L27.9673 39.3567C27.9673 39.3567 28.1221 41.6799 26.0621 41.6799C24.1798 41.6799 24.2178 39.3567 24.2178 39.3567V38.6244L24.2052 21.637L24.2102 20.9046C24.2102 20.9046 24.0758 18.5814 26.1154 18.5814C28.155 18.5814 27.9597 20.9046 27.9597 20.9046V21.637H27.9724V38.6244Z" fill="#FEFCFF"/>
<path d="M36.7576 14.499H35.7023C35.1195 14.499 34.647 14.9598 34.647 15.5283V34.7795C34.647 35.3479 35.1195 35.8087 35.7023 35.8087H36.7576C37.3405 35.8087 37.813 35.3479 37.813 34.7795V15.5283C37.813 14.9598 37.3405 14.499 36.7576 14.499Z" fill="#FEFCFF"/>
<path d="M54.9645 11.5096V18.2294C54.9645 18.7984 54.4927 19.2586 53.9066 19.2586H52.8513C52.2704 19.2586 51.796 18.8009 51.796 18.2294V14.2015L43.1478 16.7053V23.4671H53.9016C54.0132 23.4671 54.1172 23.482 54.2187 23.5141C54.2999 23.5389 54.3785 23.576 54.4521 23.6181C54.5231 23.6626 54.5891 23.7121 54.6499 23.769C54.721 23.8383 54.7819 23.9199 54.8326 24.009C54.9163 24.1525 54.962 24.3182 54.962 24.4964V38.4307C54.962 38.9997 54.4901 39.4599 53.9041 39.4599H53.7697C53.7468 39.4599 53.724 39.4599 53.7012 39.4575H53.6935C53.5667 39.4649 53.4373 39.455 53.3079 39.4154L40.7581 35.7784C40.3903 35.672 40.1264 35.3949 40.0376 35.056C40.0376 35.0535 40.0351 35.0486 40.0351 35.0461C40.0326 35.0436 40.0326 35.0411 40.0326 35.0387C39.9996 34.9397 39.9844 34.8407 39.9844 34.7343V29.8949C39.9844 29.3259 40.4562 28.8657 41.0397 28.8657H42.0976C42.6785 28.8657 43.1529 29.3234 43.1529 29.8949V33.2523L51.8011 35.7562V26.5573H41.0448C40.6084 26.5573 40.233 26.2975 40.0732 25.9264C40.0174 25.8052 39.9894 25.6691 39.9894 25.5306V15.1887C39.9894 14.9512 40.0706 14.7359 40.2127 14.5602C40.2254 14.5429 40.2381 14.5231 40.2558 14.5083C40.2761 14.4836 40.3015 14.4588 40.3243 14.4365C40.3471 14.4167 40.3725 14.3945 40.3979 14.3747C40.5019 14.2881 40.6287 14.2188 40.7657 14.1842L53.3156 10.5472C53.4221 10.515 53.5287 10.5027 53.6327 10.5027C53.724 10.4903 53.8179 10.4854 53.9117 10.4854C54.4952 10.4854 54.9696 10.9455 54.9696 11.5171L54.9645 11.5096Z" fill="#FEFCFF"/>
<path d="M72.55 6.35346V43.5273C72.55 44.0964 72.0781 44.5566 71.4947 44.5566H71.4059C71.3577 44.5566 71.3145 44.5541 71.2689 44.5516C71.142 44.559 71.0127 44.5491 70.8833 44.5096L58.2573 40.8553C57.8109 40.7241 57.5191 40.3332 57.5039 39.9027V39.8953C57.4963 39.8483 57.4938 39.8038 57.4938 39.7567V32.5446C57.4938 31.9756 57.9656 31.5154 58.5491 31.5154H59.6044C60.1854 31.5154 60.6597 31.9756 60.6597 32.5446V38.3316L69.3865 40.8577V26.5498H58.5465C57.9631 26.5498 57.4912 26.0896 57.4912 25.5206V24.4913C57.4912 24.474 57.4912 24.4567 57.4938 24.4394V9.94837C57.4938 9.37932 57.9656 8.91914 58.5491 8.91914H59.6044C60.1854 8.91914 60.6597 9.37932 60.6597 9.94837V23.4621H69.3865V6.35346C69.3865 5.78688 69.8584 5.32422 70.4419 5.32422H71.4972C72.0807 5.32422 72.5525 5.78688 72.5525 6.35346H72.55Z" fill="#FEFCFF"/>
<path d="M9.03968 7.8238V12.6731C9.03461 12.7572 8.96104 12.824 8.87479 12.8191L7.72813 12.8686C7.64188 12.8636 7.57338 12.7919 7.57845 12.7077V7.90792C7.58099 7.8238 7.51503 7.75205 7.42878 7.7471L5.77982 7.81885C5.69357 7.8139 5.62507 7.74215 5.63015 7.65803V6.78219C5.63522 6.69807 5.70879 6.63127 5.79504 6.63621L10.9144 6.41602C11.0007 6.42096 11.026 6.49271 11.0235 6.57683V7.45763C11.0159 7.54175 10.9449 7.59865 10.8561 7.6036L9.20458 7.67535C9.11833 7.6704 9.04476 7.7372 9.03968 7.82132V7.8238Z" fill="#FEFCFF"/>
<path d="M15.1864 12.3782V10.2999C15.1889 10.2158 15.123 10.1441 15.0367 10.1391L13.0986 10.2257C13.0098 10.2282 12.9337 10.2875 12.9337 10.3717V12.5044C12.9311 12.5885 12.855 12.6553 12.7688 12.6503L11.6221 12.7023C11.5359 12.6974 11.4674 12.6256 11.4724 12.5415V6.53181C11.475 6.44769 11.5485 6.38089 11.6373 6.38584L12.784 6.33636C12.8702 6.33141 12.9387 6.41306 12.9337 6.49718V8.84513C12.9286 8.92925 12.9945 9.0109 13.0833 9.00595L15.0215 8.92183C15.1077 8.92678 15.1813 8.85997 15.1864 8.77585V6.36852C15.1915 6.2844 15.265 6.2176 15.3513 6.22255L16.5005 6.17307C16.5867 6.16812 16.6552 6.24976 16.6502 6.33388V12.3411C16.6451 12.4252 16.5715 12.492 16.4853 12.4871L15.3386 12.5365C15.2523 12.5316 15.1839 12.4598 15.1889 12.3757L15.1864 12.3782Z" fill="#FEFCFF"/>
<path d="M18.8395 7.41781L18.8446 8.59055C18.8395 8.67467 18.908 8.74642 18.9943 8.75137L21.1506 8.65735C21.2368 8.6623 21.3053 8.73405 21.3003 8.81817V9.73607C21.2927 9.82019 21.2191 9.887 21.1328 9.88205L19.0095 9.97359C18.9232 9.96864 18.8497 10.0354 18.8446 10.1196V11.0004C18.8395 11.0845 18.9055 11.1562 18.9917 11.1612L21.6072 11.0474C21.696 11.0474 21.7594 11.1166 21.7569 11.2082V12.1236C21.7518 12.2077 21.6783 12.2745 21.592 12.2696L17.5254 12.4477C17.4392 12.4428 17.3707 12.371 17.3758 12.2869L17.3808 6.27724C17.3859 6.19312 17.4595 6.12631 17.5457 6.13126L21.6072 5.95312C21.6935 5.95807 21.762 6.02982 21.7569 6.11394V7.017C21.7544 7.10112 21.6783 7.16792 21.592 7.16298L19.007 7.27431C18.9207 7.26936 18.8471 7.33617 18.8421 7.42029L18.8395 7.41781Z" fill="#FEFCFF"/>
<path d="M38.9593 48.5423V49.5196C38.9567 49.6211 38.8705 49.7052 38.7665 49.7052L35.5345 48.9036C35.4254 48.8788 35.3442 48.8194 35.3442 48.718V42.832C35.3442 42.7306 35.4305 42.6465 35.5345 42.6465L36.4326 42.8692C36.5543 42.9013 36.6228 42.9285 36.6228 43.0325V47.6888C36.6254 47.7902 36.7065 47.8545 36.8156 47.8743L38.769 48.3593C38.8781 48.3865 38.9593 48.4409 38.9593 48.5448V48.5423Z" fill="#FEFCFF"/>
<path d="M43.5867 44.6412C43.6602 44.661 43.7262 44.6832 43.7592 44.7476L44.2234 47.0065L45.0403 50.9675C45.0834 51.0888 44.9921 51.215 44.8602 51.215L43.82 50.9576C43.7363 50.9379 43.6678 50.8389 43.6425 50.7622L43.5334 50.2352L43.3862 49.5226C43.3609 49.4459 43.2898 49.4163 43.2061 49.3965L41.0777 48.867C40.9965 48.867 40.923 48.9165 40.8976 48.9932L40.7352 49.4163L40.5221 49.9705C40.4968 50.0472 40.4232 50.0991 40.342 50.0991L39.3907 49.8616C39.2613 49.8171 39.1954 49.7156 39.241 49.5944L40.4384 46.4696L41.3009 44.2231C41.3339 44.1587 41.3999 44.1191 41.4734 44.1191L43.5867 44.6437V44.6412ZM42.8129 47.7809C43.0362 47.8303 43.0311 47.7908 43.0082 47.6794L42.9093 47.3033L42.8028 46.7764L42.648 46.0242L42.4476 45.1484L42.0924 46.0143L41.9352 46.3582L41.6891 46.9594C41.6307 47.1104 41.618 47.1252 41.5521 47.2836C41.5014 47.4023 41.5927 47.479 41.7246 47.5062L42.8129 47.7759V47.7809Z" fill="#FEFCFF"/>
<path d="M45.4282 45.4702C45.4282 45.2154 45.4536 45.1214 45.5855 45.1387C45.5855 45.1387 46.7144 45.4232 47.1888 45.5371C47.9422 45.7152 48.5612 45.9651 49.0103 46.2125C49.4568 46.4649 49.7383 46.836 49.7104 47.4372C49.6927 47.8034 49.5734 48.0433 49.2969 48.2809C49.198 48.365 49.2158 48.4639 49.3299 48.5258C49.8398 48.8054 50.0352 49.3274 50.0352 49.8321C50.0352 51.0173 49.7713 52.43 47.6962 51.9203L45.588 51.3958C45.4993 51.3785 45.4282 51.2993 45.4282 51.2102V45.4702ZM47.4323 47.8454C48.1934 48.0335 48.4471 47.9122 48.4471 47.4545C48.4471 46.9968 48.1655 46.8285 47.3715 46.6405C47.3715 46.6405 47.0011 46.5366 46.8895 46.5465C46.788 46.5564 46.7068 46.6356 46.7068 46.737V47.4421C46.7068 47.5485 46.7753 47.6895 46.9021 47.7168L47.4298 47.8479L47.4323 47.8454ZM46.7093 49.946C46.7093 50.0449 46.7093 50.2528 46.8032 50.2849L47.7266 50.5125C48.2999 50.656 48.6754 50.6338 48.6754 50.0326C48.6754 49.4981 48.4674 49.1815 47.648 48.9761L46.9047 48.793C46.7931 48.7658 46.7093 48.8771 46.7093 48.9835V49.9435V49.946Z" fill="#FEFCFF"/>
</g>
<defs>
<clipPath id="clip0_425_263">
<rect width="79" height="53" fill="white"/>
</clipPath>
</defs>
</svg>
