<svg width="1920" height="351" viewBox="0 0 1920 351" fill="none" xmlns="http://www.w3.org/2000/svg">
<path d="M-25.3139 196.406C-26.138 196.23 -26.9998 196.384 -27.7104 196.839C-28.4209 197.294 -28.9219 198.012 -29.1034 198.835C-29.2848 199.658 -29.1319 200.519 -28.6784 201.231C-28.225 201.943 -27.5081 202.445 -26.6861 202.632C28.8844 216.302 86.8111 235.717 146.154 225.884C185.77 219.904 222.789 202.005 254.428 177.885C272.329 164.03 281.113 141.678 280.716 119.685C280.337 108.728 277.58 96.8683 268.88 87.9592C260.133 78.7494 245.927 77.3568 235.175 80.32C224.615 82.8258 213.28 89.1062 208.072 100.377C202.873 111.478 204.337 123.63 207.563 133.783C214.44 154.394 228.111 170.969 243.434 184.846C274.374 212.402 315.218 228.966 357 229.069C411.628 228.794 464.329 211.672 511.875 186.546C535.63 173.686 558.326 158.678 577.893 139.127C587.543 129.226 596.647 118.355 602.123 104.216C608.285 90.7066 605.009 69.7081 591.834 59.9561C581.653 50.7592 565.791 46.1386 552.07 49.7085C538.342 52.9646 527.285 61.2542 518.401 70.3359C500.67 88.9132 489.589 112.193 483.967 136.608C470.641 184.789 494.331 245.182 543.115 264.389C631.678 300.5 706.082 229.257 768.646 184.887C832.885 136 895.907 83.3591 970.853 57.7516C972.103 57.3353 973.354 56.9285 974.606 56.5314C1072.81 25.8219 1182.4 8.36593 1276.9 49.086C1370.31 85.2509 1430.51 212.557 1369.57 294.934C1351.95 315.744 1328.7 333.012 1302.79 334.958C1277.12 337.392 1251.63 321.048 1242.35 296.924C1216.59 215.904 1296.63 141.652 1367.63 102.997C1442.76 62.1336 1528.83 43.8021 1614.73 39.6681C1694.63 36.2024 1779.18 44.2366 1844.09 92.3182C1891.66 126.068 1913.65 181.224 1937.76 234.636C1938.2 235.356 1938.9 235.877 1939.72 236.082C1940.54 236.287 1941.41 236.16 1942.13 235.727C1942.85 235.295 1943.38 234.593 1943.58 233.775C1943.79 232.957 1943.66 232.09 1943.24 231.364C1920.88 180.039 1898.13 120.978 1849.17 85.6297C1782.03 34.8555 1695.36 26.0985 1614.27 28.8227C1527.1 32.2319 1439.23 50.0003 1361.41 91.5452C1288.77 131.602 1200.47 204.772 1228.65 302.357C1239.8 332.151 1271.9 353.036 1303.88 350.107C1336.04 347.698 1362.2 327.444 1381.43 305.066C1451.7 208.963 1383.48 73.5944 1283.67 33.882C1182.42 -9.72074 1069.6 9.20029 969.467 40.3269C968.136 40.7489 966.807 41.1809 965.481 41.6227C886.087 68.9017 822.436 122.822 758.432 171.557C696.338 217.052 623.15 281.328 549.885 249.698C507.505 232.572 488.07 183.899 499.214 140C504.086 118.156 514.275 96.8768 529.392 80.9647C544.148 64.8049 566.713 56.8765 582.166 71.3241C600.521 84.9795 584.869 111.896 567.573 128.981C549.704 147.081 527.985 161.763 505.224 174.251C459.635 198.778 408.511 215.616 357 216.211C318.581 216.441 280.327 201.362 251.325 175.947C236.984 163.258 224.316 147.742 218.384 130.281C211.597 112.61 218.931 94.4676 237.825 90.8198C256.409 84.4488 270.662 100.756 270.477 120.028C271.092 138.807 263.295 158.764 248.572 170.236C218.107 193.935 182.811 211.424 144.823 217.597C87.9268 227.714 31.2284 209.654 -25.3139 196.406Z" fill="#F58906"/>
<path d="M755 162.5L869.5 76.4988L891 104.5L776.5 194L755 162.5Z" fill="#FEFCFF"/>
<path d="M1411.5 49.9982L1581.5 13.5L1589.5 49.9977L1422 94.5L1411.5 49.9982Z" fill="#FEFCFF"/>
<path d="M777.726 181.574C777.522 181.729 777.305 181.791 777.076 181.76C776.833 181.71 776.641 181.592 776.5 181.406L762.75 163.282C762.595 163.077 762.533 162.861 762.564 162.632C762.596 162.403 762.714 162.211 762.918 162.056L771.422 155.604C773.021 154.391 774.501 153.62 775.862 153.29C777.223 152.961 778.462 153.031 779.58 153.501C780.702 153.938 781.694 154.723 782.554 155.857C783.062 156.526 783.383 157.22 783.518 157.938C783.657 158.623 783.667 159.274 783.549 159.891C783.45 160.493 783.299 160.989 783.096 161.377C784.056 161.176 785.095 161.252 786.212 161.605C787.348 161.944 788.304 162.625 789.079 163.647C790.01 164.874 790.535 166.145 790.654 167.461C790.778 168.743 790.494 170.028 789.801 171.315C789.112 172.57 788.006 173.775 786.482 174.932L777.726 181.574ZM779.298 174.67L783.174 171.73C783.973 171.124 784.401 170.433 784.457 169.658C784.514 168.883 784.316 168.198 783.865 167.603C783.371 166.953 782.742 166.566 781.976 166.445C781.228 166.309 780.464 166.537 779.683 167.129L775.808 170.07L779.298 174.67ZM773.121 166.529L776.746 163.778C777.508 163.2 777.927 162.575 778.002 161.902C778.083 161.197 777.897 160.547 777.446 159.952C776.994 159.358 776.432 159.022 775.76 158.947C775.092 158.838 774.377 159.073 773.615 159.652L769.99 162.402L773.121 166.529ZM797.052 166.912C796.848 167.067 796.631 167.129 796.402 167.098C796.159 167.048 795.967 166.93 795.826 166.744L785.884 153.639C785.743 153.453 785.688 153.245 785.719 153.017C785.737 152.769 785.847 152.568 786.052 152.413L789.259 149.98C789.463 149.825 789.687 149.772 789.93 149.822C790.177 149.84 790.371 149.941 790.512 150.127L791.359 151.242C791.405 150.299 791.652 149.409 792.1 148.571C792.566 147.719 793.237 146.962 794.11 146.299L795.337 145.368C795.542 145.213 795.758 145.151 795.987 145.183C796.216 145.214 796.408 145.332 796.563 145.536L798.742 148.408C798.883 148.594 798.945 148.811 798.928 149.058C798.896 149.287 798.778 149.479 798.574 149.634L795.869 151.686C795.107 152.265 794.674 152.93 794.571 153.682C794.472 154.401 794.712 155.142 795.29 155.904L800.706 163.042C800.847 163.228 800.899 163.451 800.864 163.713C800.832 163.942 800.714 164.134 800.51 164.289L797.052 166.912ZM815.812 153.119C813.618 154.783 811.42 155.514 809.216 155.312C807.012 155.109 804.994 153.858 803.161 151.558C803.062 151.428 802.935 151.261 802.78 151.056C802.625 150.852 802.505 150.694 802.421 150.582C801.362 149.071 800.736 147.57 800.541 146.077C800.35 144.552 800.58 143.118 801.231 141.776C801.886 140.4 802.929 139.169 804.36 138.083C805.996 136.842 807.591 136.145 809.144 135.992C810.716 135.824 812.194 136.094 813.58 136.8C814.965 137.507 816.2 138.575 817.286 140.007L817.794 140.676C817.949 140.88 818.011 141.097 817.98 141.326C817.948 141.555 817.83 141.747 817.626 141.902L808.703 148.671C808.717 148.69 808.738 148.718 808.767 148.755C808.795 148.792 808.823 148.829 808.851 148.866C809.279 149.391 809.745 149.814 810.251 150.133C810.776 150.438 811.304 150.594 811.836 150.6C812.386 150.592 812.913 150.398 813.415 150.017C813.786 149.735 814.051 149.447 814.208 149.152C814.369 148.824 814.477 148.523 814.532 148.247C814.572 147.953 814.597 147.715 814.605 147.533C814.617 147.201 814.655 146.982 814.72 146.874C814.789 146.734 814.936 146.579 815.159 146.41L818.616 143.786C818.802 143.645 818.993 143.588 819.189 143.615C819.404 143.628 819.573 143.734 819.695 143.934C819.916 144.265 820.047 144.766 820.088 145.437C820.129 146.109 820.031 146.887 819.793 147.77C819.56 148.621 819.122 149.51 818.478 150.437C817.834 151.365 816.946 152.259 815.812 153.119ZM806.609 145.911L811.321 142.336L811.279 142.28C810.813 141.667 810.326 141.217 809.815 140.93C809.309 140.611 808.779 140.471 808.224 140.512C807.687 140.538 807.168 140.742 806.666 141.122C806.183 141.489 805.856 141.927 805.687 142.437C805.517 142.947 805.508 143.495 805.661 144.082C805.799 144.651 806.101 145.242 806.566 145.855L806.609 145.911ZM830.025 142.336C829.022 143.097 827.979 143.595 826.898 143.83C825.821 144.032 824.803 143.984 823.845 143.686C822.886 143.388 822.097 142.83 821.476 142.012C820.475 140.692 820.224 139.242 820.724 137.662C821.21 136.063 822.24 134.448 823.813 132.815L826.896 129.641L826.6 129.25C826.092 128.581 825.565 128.176 825.018 128.034C824.471 127.892 823.826 128.104 823.083 128.668C822.562 129.063 822.212 129.489 822.033 129.948C821.872 130.392 821.832 130.861 821.915 131.355C821.931 131.724 821.79 132.021 821.492 132.247L818.369 134.616C818.165 134.771 817.965 134.835 817.769 134.808C817.558 134.763 817.399 134.649 817.291 134.468C817.037 134.133 816.869 133.661 816.786 133.05C816.708 132.406 816.767 131.673 816.963 130.851C817.159 130.028 817.56 129.167 818.166 128.268C818.773 127.369 819.662 126.475 820.833 125.586C822.022 124.684 823.15 124.047 824.217 123.677C825.284 123.308 826.277 123.169 827.197 123.262C828.117 123.355 828.958 123.654 829.722 124.158C830.49 124.63 831.184 125.275 831.805 126.093L838.236 134.569C838.377 134.755 838.429 134.979 838.393 135.24C838.362 135.469 838.253 135.654 838.067 135.795L834.833 138.249C834.628 138.404 834.412 138.466 834.183 138.435C833.94 138.385 833.748 138.267 833.607 138.081L832.866 137.105C832.893 137.641 832.814 138.213 832.631 138.821C832.448 139.429 832.141 140.028 831.71 140.618C831.312 141.213 830.75 141.786 830.025 142.336ZM828.924 138.163C829.463 137.754 829.862 137.275 830.12 136.728C830.383 136.148 830.452 135.524 830.327 134.858C830.206 134.158 829.864 133.437 829.3 132.693L829.004 132.303L826.951 134.519C826.19 135.331 825.725 136.05 825.556 136.676C825.391 137.27 825.464 137.771 825.774 138.18C826.014 138.496 826.312 138.695 826.667 138.777C827.022 138.859 827.397 138.852 827.794 138.757C828.194 138.629 828.571 138.431 828.924 138.163ZM842.608 132.35C842.403 132.505 842.187 132.567 841.958 132.536C841.715 132.486 841.523 132.368 841.382 132.182L827.42 113.779C827.265 113.574 827.203 113.358 827.234 113.129C827.266 112.9 827.384 112.708 827.588 112.553L830.823 110.099C831.009 109.958 831.216 109.903 831.445 109.935C831.692 109.952 831.894 110.063 832.049 110.267L839.135 119.608L839.775 112.402C839.787 112.187 839.824 111.984 839.883 111.792C839.943 111.6 840.094 111.413 840.335 111.229L844.072 108.395C844.239 108.268 844.428 108.227 844.638 108.273C844.853 108.285 845.023 108.375 845.15 108.543C845.207 108.617 845.252 108.715 845.285 108.836C845.337 108.943 845.338 109.06 845.287 109.186L844.372 118.403L855.355 121.01C855.617 121.045 855.797 121.128 855.896 121.259C856.037 121.444 856.092 121.652 856.06 121.881C856.033 122.077 855.927 122.245 855.741 122.386L851.921 125.285C851.642 125.496 851.402 125.605 851.202 125.611C850.987 125.598 850.782 125.578 850.586 125.551L842.161 123.596L846.011 128.67C846.152 128.856 846.204 129.08 846.168 129.341C846.137 129.57 846.028 129.755 845.842 129.896L842.608 132.35ZM864.746 115.555C864.541 115.71 864.325 115.772 864.096 115.74C863.853 115.69 863.661 115.572 863.52 115.386L853.577 102.281C853.422 102.077 853.36 101.86 853.392 101.631C853.423 101.402 853.541 101.21 853.746 101.055L857.036 98.5591C857.24 98.4039 857.457 98.3421 857.686 98.3735C857.915 98.4049 858.107 98.5228 858.262 98.7273L868.204 111.833C868.345 112.018 868.407 112.235 868.39 112.483C868.359 112.711 868.241 112.903 868.036 113.058L864.746 115.555ZM852.131 98.9852C851.927 99.1403 851.71 99.2022 851.481 99.1708C851.252 99.1394 851.06 99.0214 850.905 98.817L849.001 96.3074C848.86 96.1216 848.805 95.9142 848.837 95.6853C848.854 95.4379 848.965 95.2366 849.17 95.0815L852.516 92.543C852.701 92.4019 852.916 92.3564 853.159 92.4064C853.406 92.4237 853.6 92.5253 853.741 92.7112L855.645 95.2207C855.801 95.4252 855.853 95.6489 855.803 95.8918C855.772 96.1207 855.663 96.3056 855.477 96.4466L852.131 98.9852ZM879.444 104.403C878.255 105.306 877.082 105.903 875.926 106.194C874.775 106.452 873.664 106.358 872.592 105.911C871.507 105.446 870.478 104.572 869.505 103.289L865.443 97.9358L863.268 99.5858C863.064 99.741 862.838 99.8099 862.59 99.7926C862.362 99.7612 862.17 99.6432 862.015 99.4388L860.301 97.1802C860.146 96.9757 860.084 96.7591 860.115 96.5302C860.165 96.2873 860.293 96.0882 860.497 95.9331L862.672 94.2831L859.182 89.6823C859.026 89.4778 858.965 89.2611 858.996 89.0323C859.046 88.7893 859.164 88.5974 859.35 88.4563L862.584 86.0024C862.789 85.8473 863.005 85.7854 863.234 85.8168C863.463 85.8482 863.655 85.9662 863.81 86.1706L867.301 90.7714L870.786 88.1271C870.991 87.972 871.207 87.9101 871.436 87.9415C871.684 87.9588 871.885 88.0697 872.04 88.2742L873.753 90.5327C873.909 90.7372 873.961 90.9609 873.911 91.2039C873.88 91.4327 873.762 91.6247 873.557 91.7798L870.072 94.4242L873.837 99.3874C874.317 100.019 874.819 100.43 875.342 100.618C875.866 100.807 876.416 100.682 876.992 100.245L879.139 98.6161C879.344 98.461 879.56 98.3991 879.789 98.4305C880.018 98.4619 880.21 98.5798 880.365 98.7843L882.206 101.21C882.347 101.396 882.409 101.613 882.391 101.86C882.36 102.089 882.242 102.281 882.037 102.436L879.444 104.403Z" fill="#0A023F"/>
<path d="M310.5 198L428 196.5L435.5 230.5L307 234.5L310.5 198Z" fill="#FEFCFF"/>
<path d="M322.916 229.901C322.66 229.912 322.446 229.839 322.277 229.682C322.106 229.502 322.016 229.296 322.006 229.063L321.264 210.948L315.039 211.203C314.782 211.213 314.569 211.14 314.399 210.984C314.229 210.804 314.138 210.598 314.129 210.364L313.976 206.623C313.965 206.366 314.038 206.153 314.195 205.983C314.351 205.813 314.558 205.723 314.814 205.713L333.628 204.942C333.885 204.931 334.098 205.004 334.268 205.161C334.438 205.317 334.528 205.524 334.538 205.78L334.692 209.522C334.701 209.755 334.628 209.968 334.473 210.161C334.316 210.331 334.11 210.421 333.853 210.432L327.628 210.687L328.371 228.802C328.38 229.035 328.307 229.248 328.152 229.441C327.995 229.611 327.789 229.701 327.532 229.712L322.916 229.901ZM343.633 229.403C340.882 229.515 338.66 228.859 336.967 227.434C335.273 226.009 334.332 223.829 334.141 220.894C334.135 220.731 334.126 220.521 334.116 220.265C334.105 220.008 334.097 219.81 334.091 219.67C334.086 217.825 334.429 216.235 335.122 214.899C335.837 213.538 336.845 212.493 338.146 211.762C339.469 211.008 341.029 210.593 342.824 210.52C344.876 210.436 346.583 210.774 347.945 211.536C349.331 212.297 350.39 213.362 351.123 214.734C351.857 216.105 352.26 217.688 352.334 219.483L352.368 220.322C352.379 220.579 352.306 220.792 352.149 220.962C351.993 221.132 351.786 221.222 351.53 221.232L340.339 221.691C340.34 221.714 340.342 221.749 340.344 221.796C340.345 221.842 340.347 221.889 340.349 221.936C340.4 222.611 340.542 223.224 340.775 223.775C341.031 224.325 341.376 224.754 341.809 225.064C342.265 225.372 342.808 225.513 343.437 225.487C343.904 225.468 344.285 225.382 344.583 225.23C344.902 225.054 345.163 224.868 345.366 224.673C345.567 224.454 345.723 224.273 345.834 224.128C346.033 223.863 346.19 223.705 346.305 223.653C346.442 223.578 346.65 223.534 346.93 223.523L351.266 223.345C351.499 223.335 351.689 223.398 351.834 223.532C352.003 223.665 352.081 223.849 352.067 224.083C352.06 224.48 351.881 224.966 351.531 225.541C351.181 226.116 350.656 226.698 349.956 227.287C349.279 227.852 348.411 228.331 347.353 228.725C346.295 229.118 345.055 229.344 343.633 229.403ZM340.197 218.229L346.107 217.987L346.105 217.917C346.073 217.147 345.93 216.499 345.675 215.973C345.442 215.422 345.086 215.004 344.607 214.72C344.152 214.435 343.61 214.306 342.98 214.332C342.374 214.356 341.856 214.529 341.425 214.851C340.995 215.172 340.674 215.617 340.464 216.186C340.253 216.732 340.163 217.39 340.195 218.159L340.197 218.229ZM363.487 228.589C361.972 228.651 360.671 228.541 359.586 228.258C358.522 227.952 357.642 227.567 356.946 227.106C356.273 226.643 355.763 226.162 355.416 225.662C355.067 225.139 354.873 224.68 354.834 224.285C354.8 224.029 354.873 223.816 355.053 223.645C355.233 223.474 355.427 223.385 355.637 223.376L359.624 223.213C359.694 223.21 359.753 223.219 359.8 223.24C359.871 223.261 359.943 223.305 360.016 223.372C360.326 223.523 360.637 223.72 360.951 223.964C361.263 224.185 361.622 224.38 362.026 224.55C362.43 224.721 362.911 224.794 363.471 224.771C364.124 224.745 364.666 224.594 365.099 224.319C365.53 224.022 365.736 223.628 365.716 223.138C365.701 222.765 365.583 222.466 365.364 222.242C365.144 221.994 364.702 221.767 364.04 221.56C363.401 221.353 362.436 221.159 361.144 220.979C359.92 220.748 358.844 220.431 357.917 220.025C356.989 219.596 356.265 219.03 355.746 218.327C355.226 217.601 354.944 216.714 354.901 215.665C354.863 214.732 355.129 213.822 355.7 212.935C356.271 212.047 357.128 211.312 358.272 210.728C359.414 210.12 360.848 209.781 362.574 209.711C363.903 209.656 365.075 209.772 366.091 210.057C367.106 210.319 367.961 210.681 368.657 211.143C369.354 211.605 369.887 212.085 370.258 212.583C370.628 213.082 370.834 213.541 370.875 213.959C370.907 214.191 370.846 214.404 370.691 214.597C370.534 214.767 370.351 214.857 370.141 214.865L366.504 215.014C366.411 215.018 366.317 215.01 366.223 214.991C366.128 214.948 366.044 214.905 365.972 214.861C365.687 214.732 365.399 214.557 365.11 214.336C364.821 214.114 364.486 213.918 364.105 213.746C363.725 213.575 363.254 213.501 362.695 213.524C362.065 213.55 361.582 213.71 361.243 214.004C360.905 214.298 360.745 214.666 360.763 215.109C360.776 215.412 360.88 215.688 361.077 215.937C361.298 216.185 361.715 216.401 362.33 216.586C362.968 216.77 363.945 216.964 365.261 217.167C366.88 217.357 368.18 217.724 369.16 218.268C370.138 218.789 370.842 219.425 371.27 220.178C371.72 220.907 371.962 221.691 371.996 222.531C372.042 223.65 371.745 224.654 371.104 225.545C370.463 226.435 369.5 227.152 368.215 227.695C366.952 228.214 365.376 228.512 363.487 228.589ZM384.553 227.376C383.061 227.437 381.757 227.257 380.642 226.835C379.55 226.39 378.692 225.677 378.068 224.699C377.443 223.697 377.097 222.392 377.031 220.783L376.756 214.069L374.029 214.18C373.772 214.191 373.547 214.118 373.354 213.963C373.184 213.806 373.094 213.6 373.084 213.343L372.967 210.511C372.957 210.254 373.03 210.041 373.186 209.871C373.366 209.7 373.584 209.61 373.841 209.599L376.569 209.487L376.332 203.717C376.322 203.461 376.395 203.248 376.551 203.078C376.731 202.907 376.937 202.817 377.171 202.807L381.227 202.641C381.484 202.63 381.697 202.703 381.867 202.86C382.037 203.017 382.127 203.223 382.137 203.479L382.374 209.25L386.745 209.07C387.002 209.06 387.215 209.133 387.385 209.289C387.578 209.445 387.68 209.651 387.69 209.907L387.806 212.74C387.817 212.997 387.732 213.21 387.552 213.381C387.396 213.551 387.189 213.641 386.933 213.652L382.561 213.831L382.817 220.056C382.849 220.848 383.026 221.471 383.348 221.925C383.671 222.379 384.193 222.591 384.916 222.562L387.609 222.451C387.865 222.441 388.078 222.514 388.248 222.67C388.418 222.827 388.508 223.033 388.519 223.29L388.643 226.332C388.653 226.565 388.58 226.779 388.424 226.972C388.268 227.142 388.061 227.232 387.805 227.242L384.553 227.376ZM399.894 226.747C399.637 226.758 399.424 226.685 399.254 226.528C399.083 226.348 398.993 226.142 398.984 225.909L398.31 209.472C398.3 209.216 398.373 209.003 398.529 208.833C398.686 208.663 398.892 208.573 399.149 208.562L403.275 208.393C403.532 208.383 403.745 208.456 403.915 208.612C404.085 208.769 404.175 208.975 404.185 209.232L404.859 225.668C404.868 225.901 404.795 226.114 404.64 226.307C404.483 226.477 404.277 226.567 404.02 226.578L399.894 226.747ZM399.006 205.941C398.75 205.951 398.537 205.878 398.367 205.722C398.197 205.565 398.107 205.359 398.096 205.102L397.967 201.955C397.958 201.722 398.031 201.52 398.188 201.351C398.343 201.157 398.549 201.056 398.806 201.045L403.002 200.873C403.235 200.863 403.437 200.949 403.608 201.128C403.801 201.284 403.903 201.478 403.912 201.711L404.041 204.859C404.052 205.115 403.967 205.329 403.787 205.5C403.631 205.67 403.436 205.759 403.203 205.769L399.006 205.941ZM418.328 225.992C416.836 226.053 415.532 225.873 414.418 225.451C413.325 225.006 412.467 224.294 411.843 223.315C411.218 222.313 410.873 221.008 410.807 219.399L410.532 212.685L407.804 212.796C407.548 212.807 407.323 212.734 407.13 212.579C406.96 212.422 406.869 212.216 406.859 211.959L406.743 209.127C406.732 208.87 406.805 208.657 406.962 208.487C407.142 208.316 407.36 208.226 407.616 208.215L410.344 208.104L410.108 202.333C410.097 202.077 410.17 201.864 410.327 201.694C410.506 201.523 410.713 201.433 410.946 201.423L415.003 201.257C415.259 201.247 415.472 201.32 415.642 201.476C415.812 201.633 415.902 201.839 415.913 202.096L416.149 207.866L420.52 207.687C420.777 207.676 420.99 207.749 421.16 207.906C421.353 208.061 421.455 208.267 421.466 208.524L421.582 211.356C421.592 211.613 421.507 211.826 421.328 211.997C421.171 212.167 420.965 212.257 420.708 212.268L416.337 212.447L416.592 218.672C416.624 219.464 416.802 220.088 417.124 220.541C417.446 220.995 417.969 221.207 418.691 221.178L421.384 221.067C421.64 221.057 421.854 221.13 422.023 221.286C422.193 221.443 422.284 221.649 422.294 221.906L422.419 224.948C422.428 225.181 422.355 225.395 422.2 225.588C422.043 225.758 421.837 225.848 421.58 225.858L418.328 225.992Z" fill="#0A023F"/>
<path d="M1426.5 78.7679C1426.25 78.8245 1426.02 78.7911 1425.83 78.6678C1425.63 78.5217 1425.5 78.3349 1425.45 78.1073L1420.44 55.9172C1420.38 55.6668 1420.41 55.444 1420.54 55.2486C1420.66 55.0533 1420.85 54.9274 1421.1 54.8708L1425.6 53.8522C1425.85 53.7956 1426.08 53.8289 1426.27 53.9522C1426.47 54.0755 1426.59 54.2623 1426.65 54.5127L1430.69 72.4014L1441.04 70.0632C1441.29 70.0066 1441.51 70.0513 1441.71 70.1974C1441.91 70.3207 1442.03 70.5075 1442.09 70.7579L1442.86 74.1717C1442.91 74.3993 1442.88 74.6222 1442.76 74.8402C1442.64 75.0356 1442.45 75.1615 1442.2 75.2181L1426.5 78.7679ZM1451.04 73.5787C1449.81 73.8566 1448.66 73.8785 1447.58 73.6445C1446.51 73.3826 1445.61 72.9177 1444.86 72.2498C1444.11 71.5818 1443.62 70.7471 1443.39 69.7457C1443.03 68.1298 1443.4 66.7061 1444.51 65.4746C1445.61 64.2204 1447.22 63.1756 1449.33 62.3403L1453.45 60.7271L1453.34 60.2491C1453.15 59.4298 1452.84 58.8425 1452.4 58.4873C1451.96 58.132 1451.29 58.0573 1450.38 58.2631C1449.74 58.4071 1449.25 58.6506 1448.89 58.9936C1448.56 59.3314 1448.33 59.7422 1448.2 60.2261C1448.06 60.5682 1447.81 60.7805 1447.45 60.8628L1443.63 61.7271C1443.38 61.7837 1443.17 61.7591 1443 61.6534C1442.83 61.525 1442.73 61.3558 1442.7 61.1458C1442.61 60.7361 1442.65 60.2361 1442.83 59.6458C1443.03 59.0276 1443.38 58.3847 1443.9 57.7172C1444.42 57.0497 1445.14 56.432 1446.07 55.8643C1446.99 55.2965 1448.17 54.8506 1449.61 54.5265C1451.06 54.1973 1452.35 54.085 1453.48 54.1897C1454.6 54.2945 1455.56 54.5795 1456.36 55.0448C1457.16 55.5101 1457.8 56.1304 1458.29 56.9056C1458.79 57.6529 1459.16 58.5272 1459.38 59.5286L1461.73 69.9068C1461.78 70.1344 1461.74 70.3598 1461.6 70.583C1461.47 70.7783 1461.3 70.9017 1461.07 70.9532L1457.11 71.8483C1456.86 71.9049 1456.64 71.8716 1456.44 71.7483C1456.24 71.6022 1456.11 71.4154 1456.06 71.1878L1455.79 69.9929C1455.59 70.4922 1455.29 70.9805 1454.87 71.4579C1454.45 71.9352 1453.92 72.3534 1453.29 72.7126C1452.68 73.0894 1451.93 73.3781 1451.04 73.5787ZM1451.77 69.3242C1452.43 69.1751 1452.99 68.9047 1453.45 68.5133C1453.93 68.094 1454.25 67.555 1454.41 66.8964C1454.59 66.2099 1454.58 65.4114 1454.37 64.501L1454.26 64.0231L1451.48 65.1911C1450.45 65.615 1449.73 66.077 1449.32 66.577C1448.92 67.0492 1448.78 67.5357 1448.89 68.0364C1448.98 68.4233 1449.17 68.7276 1449.46 68.9492C1449.75 69.1709 1450.09 69.3202 1450.49 69.3972C1450.91 69.4463 1451.33 69.422 1451.77 69.3242ZM1472.37 68.7569C1471.08 69.0502 1469.85 69.0167 1468.69 68.6564C1467.55 68.2911 1466.57 67.6037 1465.75 66.5944C1464.92 65.5623 1464.31 64.2155 1463.94 62.5541L1461.78 53.0294C1461.73 52.779 1461.76 52.5562 1461.88 52.3609C1462.01 52.1655 1462.19 52.0396 1462.44 51.983L1466.71 51.0184C1466.96 50.9618 1467.19 50.9952 1467.38 51.1185C1467.6 51.2366 1467.74 51.4209 1467.79 51.6712L1469.9 60.9911C1470.4 63.2215 1471.65 64.1129 1473.63 63.6653C1474.56 63.4544 1475.23 63.0027 1475.65 62.3103C1476.09 61.5899 1476.18 60.6949 1475.94 59.6252L1473.84 50.3053C1473.78 50.055 1473.81 49.8322 1473.94 49.6368C1474.06 49.4415 1474.25 49.3155 1474.5 49.259L1478.76 48.2944C1479.01 48.2378 1479.24 48.2711 1479.43 48.3944C1479.63 48.5177 1479.75 48.7045 1479.81 48.9549L1483.44 65.0001C1483.49 65.2277 1483.45 65.4505 1483.34 65.6686C1483.21 65.8639 1483.03 65.9899 1482.78 66.0465L1478.82 66.9416C1478.59 66.9931 1478.37 66.9597 1478.15 66.8416C1477.95 66.6955 1477.82 66.5087 1477.77 66.2811L1477.48 64.9838C1477.07 65.9369 1476.44 66.7377 1475.58 67.3862C1474.74 68.0068 1473.67 68.4637 1472.37 68.7569ZM1488.5 64.7529C1488.25 64.8095 1488.03 64.7762 1487.83 64.6529C1487.63 64.5068 1487.5 64.32 1487.45 64.0924L1483.83 48.0472C1483.77 47.7969 1483.8 47.574 1483.93 47.3787C1484.05 47.1834 1484.24 47.0574 1484.49 47.0008L1488.41 46.1134C1488.66 46.0568 1488.88 46.0901 1489.08 46.2134C1489.3 46.3316 1489.44 46.5159 1489.49 46.7662L1489.79 48.0635C1490.19 47.2293 1490.82 46.4653 1491.67 45.7712C1492.52 45.0772 1493.59 44.5836 1494.89 44.2904C1496.21 43.992 1497.44 44.0255 1498.57 44.3909C1499.73 44.7511 1500.72 45.4359 1501.55 46.4452C1502.4 47.4494 1503.01 48.7936 1503.39 50.4778L1505.55 60.0025C1505.6 60.2301 1505.56 60.4529 1505.45 60.671C1505.32 60.8663 1505.14 60.9923 1504.89 61.0489L1500.58 62.0212C1500.36 62.0726 1500.13 62.0393 1499.92 61.9211C1499.71 61.775 1499.59 61.5882 1499.54 61.3606L1497.43 52.0408C1497.19 50.9711 1496.74 50.2109 1496.09 49.7603C1495.46 49.2817 1494.64 49.1556 1493.64 49.382C1492.7 49.5929 1492.02 50.0585 1491.58 50.7789C1491.17 51.4713 1491.08 52.3524 1491.32 53.4221L1493.43 62.7419C1493.48 62.9695 1493.43 63.1949 1493.29 63.4182C1493.17 63.6135 1492.99 63.7369 1492.77 63.7883L1488.5 64.7529ZM1517.82 58.4843C1516.13 58.8649 1514.57 58.8947 1513.14 58.5734C1511.7 58.2522 1510.47 57.5986 1509.43 56.6128C1508.41 55.5991 1507.68 54.2807 1507.24 52.6574C1507.14 52.2984 1507.02 51.8458 1506.9 51.2996C1506.77 50.7306 1506.68 50.2615 1506.62 49.8922C1506.31 48.2154 1506.4 46.7117 1506.89 45.3812C1507.37 44.028 1508.19 42.8975 1509.35 41.9897C1510.53 41.0768 1511.97 40.4301 1513.65 40.0494C1515.22 39.6944 1516.62 39.6184 1517.83 39.8215C1519.07 39.9967 1520.1 40.3372 1520.94 40.8429C1521.79 41.3434 1522.47 41.9078 1522.97 42.5362C1523.49 43.1367 1523.82 43.6961 1523.96 44.2144C1524.03 44.4368 1524 44.6597 1523.86 44.8829C1523.71 45.0834 1523.53 45.2093 1523.3 45.2608L1518.96 46.2408C1518.71 46.2974 1518.51 46.2842 1518.34 46.2013C1518.18 46.1184 1518.02 45.976 1517.85 45.7741C1517.42 45.1303 1516.95 44.7093 1516.45 44.5112C1515.98 44.3079 1515.41 44.2809 1514.75 44.4301C1513.84 44.6359 1513.2 45.0912 1512.83 45.7961C1512.49 46.4959 1512.43 47.4654 1512.67 48.7047C1512.85 49.6202 1513.03 50.4282 1513.21 51.1286C1513.56 52.3649 1514.04 53.2135 1514.65 53.6745C1515.26 54.1354 1516.01 54.263 1516.93 54.0572C1517.63 53.8977 1518.15 53.6238 1518.5 53.2353C1518.84 52.8241 1519.05 52.2488 1519.15 51.5094C1519.21 51.2561 1519.3 51.0571 1519.41 50.9124C1519.52 50.7678 1519.7 50.6671 1519.95 50.6105L1524.29 49.6305C1524.51 49.5791 1524.74 49.6124 1524.95 49.7306C1525.17 49.8487 1525.3 50.0356 1525.33 50.2911C1525.39 50.6603 1525.38 51.1299 1525.29 51.6996C1525.2 52.2694 1525.01 52.8876 1524.71 53.5544C1524.4 54.2211 1523.95 54.8732 1523.35 55.5106C1522.78 56.1429 1522.04 56.7289 1521.13 57.2688C1520.22 57.7858 1519.12 58.191 1517.82 58.4843ZM1530.57 55.2425C1530.32 55.2991 1530.1 55.2658 1529.9 55.1425C1529.7 54.9964 1529.58 54.8096 1529.53 54.582L1524.43 32.0505C1524.38 31.8001 1524.41 31.5773 1524.53 31.3819C1524.66 31.1866 1524.84 31.0607 1525.09 31.0041L1529.46 30.0163C1529.71 29.9597 1529.94 29.9931 1530.13 30.1164C1530.33 30.2397 1530.45 30.4265 1530.51 30.6769L1532.23 38.2898C1532.68 37.4453 1533.31 36.718 1534.1 36.1077C1534.92 35.4695 1535.92 35.0166 1537.1 34.7491C1538.42 34.4507 1539.66 34.4816 1540.82 34.8419C1542 35.197 1543.01 35.8766 1543.86 36.8808C1544.71 37.885 1545.32 39.2292 1545.7 40.9134L1547.86 50.4381C1547.91 50.6656 1547.88 50.8885 1547.76 51.1066C1547.63 51.3019 1547.45 51.4278 1547.2 51.4844L1542.79 52.4799C1542.57 52.5314 1542.34 52.498 1542.12 52.3798C1541.92 52.2338 1541.8 52.047 1541.75 51.8194L1539.64 42.4995C1539.4 41.4298 1538.95 40.6697 1538.3 40.219C1537.67 39.7404 1536.86 39.6118 1535.88 39.833C1534.92 40.0491 1534.23 40.5173 1533.79 41.2376C1533.35 41.9352 1533.25 42.8189 1533.5 43.8885L1535.6 53.2084C1535.65 53.436 1535.62 53.6588 1535.5 53.8769C1535.38 54.0722 1535.19 54.1982 1534.94 54.2548L1530.57 55.2425ZM1560.04 48.5807C1559.79 48.6373 1559.57 48.604 1559.37 48.4807C1559.17 48.3346 1559.05 48.1478 1559 47.9202L1555.37 31.875C1555.31 31.6247 1555.35 31.4018 1555.47 31.2065C1555.59 31.0112 1555.78 30.8852 1556.03 30.8286L1560.06 29.918C1560.31 29.8614 1560.53 29.8948 1560.73 30.0181C1560.92 30.1414 1561.05 30.3282 1561.11 30.5786L1564.73 46.6238C1564.78 46.8514 1564.75 47.0742 1564.63 47.2923C1564.51 47.4876 1564.32 47.6136 1564.07 47.6702L1560.04 48.5807ZM1555.42 28.2759C1555.17 28.3325 1554.94 28.2992 1554.75 28.1759C1554.55 28.0526 1554.43 27.8657 1554.37 27.6154L1553.68 24.5429C1553.63 24.3153 1553.66 24.1039 1553.78 23.9085C1553.9 23.6904 1554.09 23.5531 1554.34 23.4965L1558.43 22.5705C1558.66 22.519 1558.88 22.5664 1559.08 22.7124C1559.29 22.8306 1559.43 23.0034 1559.48 23.231L1560.17 26.3035C1560.23 26.5539 1560.19 26.7793 1560.04 26.9798C1559.92 27.1751 1559.74 27.2985 1559.51 27.3499L1555.42 28.2759ZM1578.04 44.5129C1576.58 44.8422 1575.27 44.9001 1574.09 44.6867C1572.94 44.4454 1571.97 43.8998 1571.18 43.0498C1570.38 42.177 1569.81 40.9554 1569.45 39.385L1567.97 32.8304L1565.31 33.4323C1565.06 33.4889 1564.82 33.4581 1564.6 33.3399C1564.41 33.2166 1564.28 33.0298 1564.23 32.7795L1563.6 30.0142C1563.55 29.7639 1563.58 29.541 1563.7 29.3457C1563.85 29.1452 1564.05 29.0167 1564.3 28.9601L1566.96 28.3582L1565.69 22.7253C1565.63 22.475 1565.66 22.2521 1565.79 22.0568C1565.93 21.8563 1566.12 21.7304 1566.35 21.6789L1570.31 20.7838C1570.56 20.7272 1570.78 20.7605 1570.98 20.8838C1571.17 21.0071 1571.3 21.194 1571.35 21.4443L1572.63 27.0772L1576.89 26.1126C1577.14 26.056 1577.37 26.0894 1577.56 26.2127C1577.78 26.3308 1577.92 26.5151 1577.97 26.7654L1578.6 29.5307C1578.66 29.781 1578.61 30.0064 1578.46 30.2069C1578.34 30.4022 1578.15 30.5282 1577.9 30.5848L1573.64 31.5494L1575.01 37.6261C1575.19 38.3999 1575.47 38.9809 1575.87 39.3692C1576.27 39.7575 1576.82 39.872 1577.53 39.7125L1580.16 39.1183C1580.41 39.0617 1580.63 39.095 1580.82 39.2183C1581.02 39.3416 1581.15 39.5285 1581.2 39.7788L1581.87 42.7489C1581.93 42.9765 1581.89 43.1993 1581.77 43.4174C1581.65 43.6127 1581.46 43.7387 1581.21 43.7953L1578.04 44.5129Z" fill="#0A023F"/>
<path d="M500.749 78.3624L525.986 92.9771L508.606 128.219L480.896 114.253L500.749 78.3624Z" fill="#FEFCFF"/>
<g clip-path="url(#clip0_0_1)">
<path d="M497.053 105.728C495.268 104.592 493.689 103.508 492.415 102.04C491.906 101.455 491.14 100.817 491.62 99.8929C492.059 99.0474 492.983 99.2549 493.736 99.2664C494.893 99.2846 495.996 99.6089 497.367 99.8969C496.599 99.24 496.007 98.7727 495.458 98.2551C495.038 97.8596 494.642 97.4261 494.29 96.9606C493.938 96.4979 493.522 95.9644 493.816 95.3189C494.117 94.6604 494.795 94.6564 495.379 94.6475C497.269 94.6149 499.039 95.1267 500.79 95.6986C501.161 95.8198 501.504 96.0463 502.143 95.9565C500.532 95.0818 499.143 94.1751 497.896 93.0694C497.403 92.6318 496.521 92.1717 496.89 91.4322C497.254 90.6991 498.179 91.0878 498.808 91.2363C503.425 92.3152 507.642 94.3484 511.767 96.5936C513.826 97.7145 515.847 98.9039 517.608 100.492C518.031 100.873 518.721 101.342 518.464 101.907C518.157 102.578 517.348 102.292 516.765 102.191C515.046 101.897 513.407 101.341 511.771 100.637C511.849 101.175 512.289 101.238 512.589 101.44C514.118 102.472 515.601 103.562 516.762 105.048C517.121 105.51 517.521 106.037 517.208 106.692C516.892 107.354 516.218 107.329 515.642 107.36C514.277 107.435 512.985 107.057 511.437 106.722C512.618 107.782 513.736 108.548 514.516 109.683C514.847 110.165 515.284 110.656 514.948 111.322C514.617 111.979 513.961 111.969 513.378 111.976C511.487 112 509.721 111.482 507.966 110.916C507.743 110.844 507.523 110.771 507.206 110.878C507.963 111.391 508.721 111.903 509.473 112.421C510.276 112.976 511.055 113.564 511.695 114.323C511.898 114.565 512.187 114.836 512.016 115.214C511.842 115.599 511.447 115.551 511.13 115.541C509.916 115.497 508.763 115.174 507.645 114.769C502.066 112.744 496.705 110.281 491.903 106.726C491.471 106.406 491.086 106.011 490.712 105.618C490.47 105.362 490.149 105.064 490.39 104.638C490.588 104.289 490.98 104.338 491.299 104.358C492.804 104.452 494.195 104.959 495.604 105.412C496.002 105.539 496.356 105.829 497.054 105.724L497.053 105.728Z" fill="#0A023F"/>
<path d="M508.593 94.6127C505.628 93.2041 502.691 91.7353 500.107 89.6495C499.645 89.2777 498.806 88.8684 499.115 88.2116C499.447 87.5067 500.294 87.9471 500.845 88.0895C505.647 89.3274 510.034 91.5171 514.321 93.9125C516.052 94.8802 517.777 95.8681 519.234 97.2732C519.507 97.5348 519.979 97.8016 519.713 98.3005C519.497 98.7066 519.016 98.5365 518.67 98.4801C516.348 98.1119 514.219 97.2092 512.097 96.3074C510.902 95.8005 509.758 95.1807 508.591 94.6118L508.593 94.6127Z" fill="#0A023F"/>
<path d="M498.721 114.845C495.785 113.457 492.924 111.926 490.331 109.926C489.827 109.536 488.878 109.123 489.259 108.341C489.574 107.696 490.488 108.138 491.097 108.299C496.355 109.689 501.077 112.255 505.774 114.87C507.032 115.571 508.232 116.388 509.299 117.389C509.574 117.647 510.066 117.924 509.834 118.414C509.604 118.903 509.075 118.707 508.711 118.646C506.217 118.217 503.934 117.217 501.64 116.259C500.643 115.844 499.692 115.32 498.719 114.846L498.721 114.845Z" fill="#0A023F"/>
<path d="M506.061 120.451C500.137 118.904 494.743 116.277 489.886 112.553C489.725 112.428 489.873 112.129 490.068 112.18C495.978 113.75 501.381 116.359 506.243 120.076C506.406 120.199 506.258 120.501 506.061 120.451Z" fill="#0A023F"/>
<path d="M492.3 115.907C495.845 116.798 499.043 118.415 501.961 120.606C502.092 120.704 501.978 120.947 501.819 120.911C498.232 120.106 495.035 118.493 492.152 116.211C492.025 116.11 492.143 115.867 492.3 115.907Z" fill="#0A023F"/>
<path d="M502.778 86.2404C508.702 87.7868 514.096 90.4144 518.953 94.1383C519.114 94.2627 518.966 94.5621 518.772 94.5108C512.862 92.9413 507.459 90.3321 502.596 86.6148C502.434 86.4922 502.581 86.1901 502.778 86.2404Z" fill="#0A023F"/>
<path d="M516.465 90.9318C512.92 90.0406 509.722 88.4241 506.804 86.2331C506.673 86.1348 506.787 85.8921 506.946 85.9283C510.533 86.7324 513.731 88.3462 516.613 90.6279C516.74 90.7289 516.622 90.9717 516.465 90.9318Z" fill="#0A023F"/>
</g>
<path d="M1370.32 281.622L1392.86 298.076L1367 330.5L1344.67 308.89L1370.32 281.622Z" fill="#FEFCFF"/>
<path d="M1203 4.49413L1200 33.4941L1163 31.9941L1164.5 0.999742L1203 4.49413Z" fill="#FEFCFF"/>
<path d="M1204.72 3.57128L1201.61 32.5671L1162.46 30.987L1163.98 -0.00665442L1204.72 3.57128Z" fill="#FEFCFF"/>
<g clip-path="url(#clip1_0_1)">
<path d="M1361.64 305.047C1360.22 303.483 1358.98 302.023 1358.13 300.273C1357.79 299.575 1357.22 298.759 1357.93 297.992C1358.57 297.292 1359.41 297.734 1360.13 297.942C1361.24 298.263 1362.22 298.864 1363.47 299.502C1362.9 298.666 1362.45 298.06 1362.06 297.417C1361.76 296.925 1361.49 296.403 1361.27 295.862C1361.05 295.323 1360.79 294.699 1361.24 294.153C1361.71 293.597 1362.36 293.771 1362.93 293.915C1364.76 294.378 1366.33 295.336 1367.88 296.346C1368.2 296.561 1368.47 296.869 1369.11 296.95C1367.79 295.683 1366.68 294.445 1365.77 293.051C1365.41 292.5 1364.68 291.824 1365.23 291.207C1365.77 290.595 1366.56 291.213 1367.13 291.521C1371.3 293.771 1374.84 296.838 1378.23 300.085C1379.93 301.706 1381.57 303.383 1382.85 305.377C1383.16 305.855 1383.7 306.489 1383.31 306.967C1382.83 307.535 1382.13 307.046 1381.59 306.797C1380.01 306.062 1378.57 305.096 1377.18 303.989C1377.11 304.528 1377.52 304.704 1377.76 304.977C1378.96 306.374 1380.11 307.815 1380.84 309.553C1381.07 310.092 1381.31 310.706 1380.84 311.256C1380.36 311.813 1379.72 311.611 1379.15 311.49C1377.82 311.205 1376.67 310.503 1375.26 309.774C1376.13 311.106 1377 312.138 1377.46 313.437C1377.65 313.989 1377.95 314.578 1377.45 315.133C1376.95 315.68 1376.32 315.498 1375.76 315.353C1373.93 314.88 1372.36 313.918 1370.82 312.912C1370.62 312.784 1370.43 312.656 1370.09 312.676C1370.69 313.37 1371.29 314.062 1371.88 314.76C1372.5 315.505 1373.1 316.277 1373.52 317.177C1373.65 317.463 1373.86 317.801 1373.6 318.121C1373.33 318.447 1372.96 318.297 1372.66 318.205C1371.5 317.844 1370.47 317.23 1369.5 316.546C1364.64 313.131 1360.11 309.35 1356.41 304.662C1356.08 304.239 1355.81 303.758 1355.55 303.28C1355.38 302.97 1355.15 302.598 1355.5 302.25C1355.78 301.965 1356.14 302.115 1356.45 302.218C1357.87 302.702 1359.09 303.556 1360.33 304.362C1360.68 304.589 1360.94 304.961 1361.64 305.044L1361.64 305.047Z" fill="#0A023F"/>
<path d="M1375.69 297.342C1373.2 295.206 1370.75 293.019 1368.8 290.329C1368.45 289.849 1367.75 289.234 1368.22 288.682C1368.72 288.088 1369.43 288.735 1369.92 289.017C1374.23 291.469 1377.89 294.732 1381.4 298.166C1382.82 299.553 1384.23 300.959 1385.26 302.696C1385.46 303.02 1385.84 303.401 1385.46 303.813C1385.14 304.148 1384.72 303.858 1384.4 303.713C1382.26 302.75 1380.44 301.321 1378.63 299.895C1377.61 299.093 1376.67 298.195 1375.69 297.34L1375.69 297.342Z" fill="#0A023F"/>
<path d="M1360.86 314.282C1358.39 312.174 1356.03 309.947 1354.06 307.338C1353.67 306.829 1352.86 306.183 1353.44 305.528C1353.91 304.988 1354.67 305.653 1355.22 305.969C1359.93 308.686 1363.82 312.4 1367.66 316.154C1368.69 317.16 1369.64 318.262 1370.41 319.508C1370.6 319.829 1371.01 320.225 1370.65 320.637C1370.3 321.049 1369.84 320.721 1369.51 320.567C1367.22 319.5 1365.27 317.937 1363.31 316.411C1362.46 315.749 1361.68 314.995 1360.86 314.282L1360.86 314.282Z" fill="#0A023F"/>
<path d="M1366.48 321.615C1361.17 318.571 1356.65 314.622 1352.94 309.756C1352.81 309.594 1353.04 309.344 1353.21 309.444C1358.5 312.507 1363.03 316.44 1366.75 321.301C1366.88 321.462 1366.66 321.715 1366.48 321.615Z" fill="#0A023F"/>
<path d="M1354.39 313.626C1357.58 315.414 1360.24 317.812 1362.48 320.691C1362.58 320.82 1362.41 321.024 1362.26 320.948C1359.01 319.232 1356.35 316.837 1354.17 313.88C1354.07 313.749 1354.25 313.546 1354.39 313.626Z" fill="#0A023F"/>
<path d="M1372.27 287.739C1377.58 290.783 1382.1 294.732 1385.81 299.598C1385.94 299.76 1385.71 300.01 1385.54 299.91C1380.25 296.847 1375.72 292.914 1372 288.053C1371.87 287.892 1372.09 287.639 1372.27 287.739Z" fill="#0A023F"/>
<path d="M1384.25 295.851C1381.06 294.063 1378.4 291.665 1376.16 288.786C1376.06 288.657 1376.23 288.453 1376.38 288.529C1379.63 290.245 1382.29 292.64 1384.47 295.597C1384.57 295.728 1384.39 295.931 1384.25 295.851Z" fill="#0A023F"/>
</g>
<g clip-path="url(#clip2_0_1)">
<path d="M1178.41 11.2839C1178.8 9.20335 1179.21 7.33279 1180.09 5.60039C1180.44 4.90856 1180.74 3.9585 1181.78 4.05586C1182.73 4.14514 1182.88 5.07957 1183.15 5.78136C1183.57 6.86019 1183.69 8.0039 1183.94 9.38318C1184.26 8.4241 1184.47 7.70025 1184.74 6.99699C1184.95 6.45856 1185.2 5.92931 1185.5 5.42765C1185.8 4.92788 1186.13 4.34118 1186.84 4.37126C1187.57 4.40231 1187.82 5.02976 1188.05 5.5674C1188.79 7.30659 1188.98 9.13874 1189.11 10.9768C1189.14 11.3662 1189.06 11.7685 1189.38 12.3269C1189.59 10.5055 1189.91 8.8774 1190.46 7.30633C1190.68 6.68509 1190.78 5.69431 1191.6 5.75879C1192.42 5.82067 1192.4 6.82316 1192.5 7.46211C1193.24 12.1458 1192.94 16.8179 1192.41 21.4845C1192.15 23.8137 1191.8 26.1335 1190.99 28.3623C1190.8 28.8976 1190.62 29.7136 1190 29.6876C1189.27 29.6555 1189.23 28.7984 1189.1 28.2208C1188.73 26.5169 1188.63 24.7888 1188.66 23.0089C1188.2 23.2828 1188.3 23.7143 1188.23 24.0682C1187.85 25.8734 1187.39 27.6575 1186.45 29.2921C1186.16 29.7982 1185.82 30.3665 1185.1 30.3231C1184.37 30.2792 1184.14 29.6456 1183.89 29.123C1183.31 27.8861 1183.17 26.5472 1182.9 24.9869C1182.36 26.4796 1182.07 27.8038 1181.32 28.9532C1180.99 29.441 1180.7 30.0309 1179.96 29.9699C1179.22 29.9096 1178.99 29.2979 1178.76 28.7604C1178.03 27.0177 1177.84 25.186 1177.71 23.3475C1177.69 23.1138 1177.68 22.8823 1177.46 22.6288C1177.27 23.5233 1177.08 24.4178 1176.88 25.3098C1176.67 26.262 1176.42 27.2053 1175.95 28.0832C1175.81 28.3627 1175.66 28.7323 1175.25 28.7162C1174.83 28.6996 1174.72 28.3152 1174.61 28.0181C1174.2 26.8762 1174.06 25.6863 1174.02 24.4984C1173.8 18.5671 1174.06 12.6733 1175.55 6.88736C1175.69 6.36633 1175.91 5.86136 1176.13 5.36683C1176.28 5.04642 1176.43 4.63698 1176.92 4.70073C1177.32 4.75235 1177.42 5.13456 1177.52 5.43718C1178 6.86686 1178.05 8.34702 1178.16 9.82286C1178.19 10.239 1178.06 10.6764 1178.42 11.2842L1178.41 11.2839Z" fill="#0A023F"/>
<path d="M1193.05 17.7983C1193.24 14.5219 1193.5 11.2479 1194.46 8.06901C1194.63 7.50152 1194.7 6.56981 1195.42 6.60913C1196.2 6.6521 1196.11 7.60242 1196.18 8.16634C1196.84 13.0813 1196.46 17.9702 1195.86 22.8435C1195.61 24.8109 1195.34 26.7811 1194.59 28.6588C1194.45 29.0102 1194.38 29.5479 1193.82 29.4891C1193.36 29.4415 1193.34 28.9321 1193.26 28.5903C1192.73 26.3005 1192.76 23.9883 1192.8 21.6823C1192.82 20.3847 1192.96 19.0914 1193.05 17.7963L1193.05 17.7983Z" fill="#0A023F"/>
<path d="M1170.59 16.2575C1170.78 13.0152 1171.12 9.78787 1172 6.6339C1172.17 6.01958 1172.19 4.98531 1173.06 5.04462C1173.78 5.09352 1173.71 6.10671 1173.79 6.73208C1174.48 12.1264 1173.88 17.467 1173.22 22.8019C1173.05 24.2317 1172.74 25.6506 1172.21 27.0156C1172.08 27.3673 1172.01 27.9273 1171.46 27.8964C1170.92 27.8677 1170.91 27.3037 1170.83 26.9433C1170.29 24.4714 1170.36 21.98 1170.38 19.4937C1170.39 18.4135 1170.52 17.3353 1170.59 16.2554L1170.59 16.2575Z" fill="#0A023F"/>
<path d="M1168.16 25.1664C1167.36 19.096 1167.77 13.1098 1169.4 7.20881C1169.45 7.01269 1169.78 7.03749 1169.81 7.23705C1170.58 13.3035 1170.19 19.2912 1168.57 25.1948C1168.52 25.391 1168.19 25.3681 1168.16 25.1664Z" fill="#0A023F"/>
<path d="M1167.2 10.7071C1167.7 14.327 1167.41 17.898 1166.47 21.4256C1166.43 21.5838 1166.16 21.5696 1166.14 21.4088C1165.53 17.7823 1165.83 14.2131 1166.86 10.6841C1166.9 10.5282 1167.17 10.5466 1167.2 10.7071Z" fill="#0A023F"/>
<path d="M1198.62 9.26287C1199.42 15.3332 1199.01 21.3194 1197.39 27.2204C1197.33 27.4166 1197 27.3918 1196.97 27.1922C1196.21 21.1257 1196.59 15.1381 1198.21 9.23448C1198.26 9.03822 1198.6 9.06113 1198.62 9.26287Z" fill="#0A023F"/>
<path d="M1199.42 23.7091C1198.92 20.0893 1199.21 16.5182 1200.14 12.9907C1200.19 12.8324 1200.45 12.8466 1200.48 13.0075C1201.08 16.6339 1200.79 20.2031 1199.76 23.7321C1199.71 23.8881 1199.44 23.8697 1199.42 23.7091Z" fill="#0A023F"/>
</g>
<defs>
<clipPath id="clip0_0_1">
<rect width="34.9337" height="26.0144" fill="white" transform="translate(485 113.4) rotate(-64.0077)"/>
</clipPath>
<clipPath id="clip1_0_1">
<rect width="34.9337" height="26.0144" fill="white" transform="translate(1348 309.294) rotate(-48.8243)"/>
</clipPath>
<clipPath id="clip2_0_1">
<rect width="34.9337" height="26.0144" fill="white" transform="translate(1166.77 3) rotate(3.90843)"/>
</clipPath>
</defs>
</svg>
