<svg width="230" height="65" viewBox="0 0 230 65" fill="none" xmlns="http://www.w3.org/2000/svg">
<path d="M2.14056 35.0391C1.9963 34.821 1.77393 34.6639 1.51777 34.6053C1.26165 34.5466 0.993476 34.5907 0.771389 34.7284C0.549301 34.866 0.390541 35.0866 0.32917 35.3421C0.267754 35.5976 0.309522 35.8666 0.440688 36.0928C3.99319 42.0556 9.08106 47.0239 14.9075 50.8113C30.906 61.9209 53.5155 58.4838 68.6901 47.5535C77.0931 41.6322 86.4719 34.9445 89.1905 22.9311C90.5171 16.8769 86.8503 9.65392 81.0556 7.19577C75.4319 4.50306 68.4439 5.18164 63.484 9.00927C63.393 9.07858 63.3024 9.14839 63.2121 9.21868C54.0098 16.804 46.5461 29.4486 52.0802 42.2777C60.0497 54.8755 74.8644 51.6087 85.4607 49.6523C85.5788 49.6263 85.6967 49.6002 85.8145 49.5741C97.2225 47.0243 108.449 43.5335 119.062 38.4089C124.343 35.8265 129.502 32.8616 134.14 28.9941C136.459 27.0199 138.649 24.8884 140.352 22.0479C142.036 19.4948 143.059 14.6138 140.043 11.6519C137.546 8.80513 133.07 7.86116 129.648 9.1328C126.163 10.3216 123.601 12.9426 121.874 15.7838C119.88 18.922 119.363 23.3272 120.997 26.8405C122.567 30.3641 125.439 32.7823 128.319 34.5919C134.22 38.1808 140.666 39.8884 147.072 41.203C165.34 44.3429 183.492 42.8624 201.469 41.2463C208.222 40.5667 214.927 39.7508 221.644 38.693C222.168 38.6097 222.637 38.3217 222.948 37.8924C223.26 37.4631 223.388 36.9276 223.305 36.4037C223.222 35.8799 222.934 35.4106 222.504 35.0991C222.075 34.7876 221.539 34.6594 221.016 34.7427C214.412 35.7829 207.755 36.5937 201.071 37.2661C183.324 38.8833 165.123 40.2712 147.852 37.2797C141.704 36.0328 135.555 34.3306 130.436 31.1975C125.248 28.238 122.143 22.5877 125.292 17.8606C127.844 13.1741 133.938 10.6966 137.119 14.3813C139.951 17.0667 135.617 22.6515 131.565 25.9332C127.33 29.4706 122.393 32.3321 117.314 34.8112C107.091 39.7502 96.1168 43.175 84.9475 45.6691C84.8322 45.6947 84.7167 45.7202 84.6011 45.7456C74.3567 48.0128 60.7943 48.675 56.5548 40.0292C52.9136 31.3645 59.1806 20.0207 66.8984 13.9527C66.9722 13.8953 67.0462 13.8383 67.1204 13.7818C73.4729 8.40391 85.4619 13.523 83.4683 22.013C81.903 30.431 73.6464 37.6188 65.7535 43.2746C51.6742 53.8041 32.0168 57.6434 16.5216 48.1686C10.9111 44.9164 5.79175 40.4303 2.14056 35.0391Z" fill="#F58906"/>
<path d="M191.298 17.1177C191.089 16.964 190.83 16.8893 190.57 16.9173C190.311 16.9452 190.074 17.0724 189.91 17.2721C189.746 17.4719 189.667 17.7293 189.69 17.9892C189.714 18.2492 189.837 18.4892 190.029 18.6635C191.034 19.578 192.065 20.472 193.109 21.3488C202.316 28.6274 211.583 36.3259 224.395 38.5229C224.416 38.5245 224.436 38.5261 224.456 38.5276C224.893 38.5617 225.185 38.5888 225.543 38.635C225.725 38.659 225.865 38.6824 225.967 38.7032C226.041 38.7182 226.088 38.7311 226.097 38.7337C226.087 38.7227 226.139 38.7762 225.858 38.6116C225.725 38.5183 225.514 38.3867 225.282 37.9815C224.898 37.3955 225.09 36.364 225.35 36.07C225.415 35.9727 225.45 35.9332 225.475 35.9022C225.503 35.8693 225.529 35.8411 225.553 35.8167C225.601 35.7679 225.64 35.7338 225.672 35.7082C225.735 35.6576 225.766 35.6398 225.776 35.6338C225.798 35.6233 225.667 35.6888 225.528 35.7421C225.407 35.79 225.25 35.847 225.066 35.9094C224.904 35.964 224.748 36.0142 224.565 36.0713C223.125 36.5134 221.6 36.9109 220.086 37.3251C217.036 38.1527 213.958 39.0227 210.926 40.0284C204.893 42.1261 198.656 44.3189 193.568 49.2692C192.55 50.3223 191.623 51.536 190.953 52.9658C190.926 53.0245 190.899 53.0835 190.872 53.1427C190.656 53.627 190.641 54.1775 190.83 54.6729C191.02 55.1683 191.398 55.5682 191.883 55.7845C192.367 56.0009 192.918 56.0159 193.413 55.8265C193.908 55.637 194.308 55.2584 194.525 54.7741C194.542 54.7362 194.559 54.6983 194.577 54.6604C195.007 53.7395 195.654 52.8647 196.442 52.0515C200.415 48.1157 206.401 45.7887 212.184 43.8253C215.107 42.8556 218.105 42.0072 221.136 41.1849C222.651 40.7697 224.149 40.3825 225.754 39.8905C225.962 39.8257 226.145 39.7669 226.347 39.6986C226.579 39.6203 226.795 39.5427 226.999 39.4619C227.242 39.3639 227.492 39.2639 227.822 39.0705C227.937 39.002 228.057 38.9234 228.193 38.8136C228.261 38.7584 228.333 38.6951 228.409 38.6175C228.447 38.5787 228.486 38.5363 228.526 38.4891C228.546 38.4656 228.566 38.4408 228.587 38.4147C228.616 38.3778 228.659 38.3187 228.695 38.263C229.022 37.867 229.224 36.7387 228.79 36.061C228.521 35.5904 228.253 35.4052 228.034 35.2555C226.744 34.6043 226.618 34.7939 226.067 34.6695C225.584 34.6073 225.252 34.5778 224.761 34.5392C224.746 34.5381 224.73 34.5369 224.715 34.5357C214.262 32.842 204.067 25.7572 194.563 19.4481C193.461 18.6838 192.368 17.9069 191.298 17.1177Z" fill="#F58906"/>
</svg>
