<svg width="262" height="421" viewBox="0 0 262 421" fill="none" xmlns="http://www.w3.org/2000/svg">
<path d="M43.7384 253.766C40.5948 248.592 38.497 242.216 37.9619 236.5C37.6676 233.356 37.7362 230.229 38.1412 227.164C38.2424 226.395 38.6217 224.593 38.955 223.364C39.1404 222.672 39.3523 221.991 39.5842 221.319C39.7012 220.985 39.8249 220.654 39.9486 220.323C40.112 219.908 40.1209 219.882 39.9706 220.247C40.0634 220.029 40.1629 219.815 40.2578 219.602C40.8522 218.309 41.5483 217.086 42.3087 215.897C42.932 214.922 41.7913 216.526 42.5076 215.624C42.7221 215.351 42.9277 215.069 43.1487 214.799C43.6417 214.185 44.1569 213.507 44.7628 212.998C43.9092 213.711 44.7982 212.983 44.9397 212.857C45.194 212.634 45.455 212.414 45.7203 212.203C45.9857 211.992 46.26 211.8 46.532 211.591C47.4277 210.911 45.718 212.03 46.7023 211.481C47.2884 211.154 47.8746 210.838 48.4785 210.536C49.4606 210.05 47.682 210.767 48.7329 210.436C49.162 210.302 49.5824 210.15 50.0182 210.03C50.3478 209.944 50.6797 209.862 51.0138 209.795C50.1907 209.947 51.3213 209.774 51.4076 209.766C52.0825 209.692 52.7617 209.661 53.4499 209.683C52.7463 209.662 53.8261 209.728 53.877 209.735C54.209 209.776 54.5454 209.826 54.8773 209.889C55.2093 209.953 55.5412 210.027 55.8688 210.115C55.9905 210.148 57.0839 210.487 56.7054 210.348C59.3591 211.309 61.4535 212.843 62.8582 215.335C62.6189 214.908 63.102 215.871 63.0842 215.833C63.215 216.142 63.3236 216.461 63.4234 216.783C63.5233 217.105 63.5965 217.427 63.6631 217.757C63.5521 217.199 63.7121 218.24 63.7099 218.246C63.7502 218.901 63.7396 219.57 63.6383 220.205C63.7551 219.48 63.5345 220.511 63.5191 220.568C63.4617 220.782 62.9314 221.908 63.3513 221.13C63.2364 221.346 63.1039 221.792 62.9071 221.935L63.1679 221.559C63.0486 221.72 62.9203 221.874 62.7855 222.025L63.1813 221.654C63.0331 221.788 62.8827 221.918 62.7235 222.04L63.1791 221.75C63.0066 221.855 62.8319 221.955 62.6505 222.042L63.0708 221.878C62.8761 221.948 62.6792 222.013 62.4823 222.067C61.6306 222.36 63.1683 222.106 62.2611 222.092C62.1593 222.09 61.1591 222.08 61.9535 222.136C61.5486 222.109 61.1414 222.032 60.7386 221.942C60.7143 221.935 59.7316 221.651 60.327 221.856C60.0282 221.751 59.7294 221.612 59.446 221.473C58.8594 221.185 58.2949 220.844 57.7548 220.465C56.9401 219.886 55.8794 218.801 55.0798 217.651C54.351 216.606 53.8102 215.366 53.3555 213.838C52.8698 212.211 52.6341 210.609 52.5311 208.952C52.1616 202.792 52.8166 196.525 53.62 190.526C54.309 185.425 55.5836 179.291 57.1929 173.863C58.0163 171.088 58.9525 168.35 60.0083 165.675C60.132 165.355 60.2624 165.038 60.3905 164.716C60.8124 163.663 60.0878 165.396 60.5385 164.358C60.8124 163.73 61.0819 163.103 61.3625 162.478C61.9701 161.135 62.6174 159.809 63.2936 158.499C64.5885 156.003 66.0096 153.584 67.5635 151.254C67.6475 151.13 68.2886 150.204 67.7094 151.026C67.9017 150.75 68.0918 150.481 68.2864 150.21C68.6754 149.668 69.0733 149.134 69.4735 148.604C70.3489 147.457 71.2554 146.342 72.2016 145.255C73.0396 144.297 73.9041 143.362 74.793 142.455C74.9854 142.258 75.1711 142.047 75.3768 141.866C74.5121 142.611 75.3635 141.883 75.5139 141.742C76.0755 141.206 76.6505 140.688 77.2343 140.177C78.2361 139.296 79.271 138.452 80.3326 137.642C80.8656 137.236 81.4074 136.837 81.9537 136.448C82.2279 136.255 82.5066 136.061 82.7808 135.869C83.2143 135.577 83.2586 135.547 82.9003 135.786C83.1391 135.63 83.3824 135.473 83.6235 135.323C86.6426 133.413 89.8278 131.765 93.1038 130.297C96.026 128.987 99.1363 127.806 102.605 126.588C109.467 124.171 116.467 122.089 123.276 119.538C129.926 117.053 136.381 114.124 142.541 110.685C154.848 103.813 165.992 95.1032 175.654 84.8901C184.428 75.617 193.932 64.3456 192.851 50.0203C192.364 43.5121 190.041 37.018 185.892 31.646C182.143 26.7905 176.92 22.8941 171.322 20.7417C168.511 19.6622 165.665 18.8993 162.731 18.6204C160.607 18.4186 158.426 19.5825 157.495 21.4624C156.844 22.7791 156.673 25.4001 158.892 25.6127C170.906 26.753 181.609 35.9374 184.552 48.3032C185.269 51.3213 185.453 54.3655 185.127 57.5205C185.02 58.5327 185.031 58.4443 184.839 59.3461C184.671 60.1428 184.466 60.9271 184.232 61.6955C184.102 62.1243 183.956 62.5428 183.81 62.9613C183.744 63.1454 183.452 63.9153 183.521 63.747C183.589 63.5787 183.265 64.3345 183.183 64.5083C182.997 64.9098 182.805 65.3084 182.611 65.7024C181.839 67.2254 180.96 68.6871 180.018 70.0963C179.912 70.2523 179.808 70.4129 179.7 70.5642C179.744 70.5011 180.045 70.0853 179.764 70.4649C179.536 70.7664 179.324 71.0783 179.099 71.3846C178.577 72.0936 178.04 72.7922 177.489 73.4852C175.327 76.2183 173.039 78.8529 170.662 81.39C169.455 82.6748 168.216 83.9278 166.969 85.1732C166.609 85.5299 167.002 85.1426 167.06 85.0852C166.914 85.2241 166.77 85.3678 166.62 85.5086C166.326 85.793 166.034 86.0709 165.735 86.346C165.043 86.9972 164.347 87.6391 163.641 88.2735C161.025 90.6305 158.312 92.8825 155.514 95.0242C154.114 96.0927 152.692 97.1368 151.254 98.1483C150.587 98.6161 149.921 99.0773 149.246 99.5311C149.078 99.6458 148.908 99.7557 148.74 99.8703C149.377 99.4377 148.793 99.8371 148.676 99.9138C148.28 100.173 147.879 100.435 147.481 100.69C144.511 102.59 141.461 104.378 138.34 106.039C135.219 107.7 132.029 109.239 128.773 110.648C128.399 110.809 128.021 110.972 127.645 111.128C127.454 111.207 127.269 111.285 127.078 111.364C127.247 111.294 127.696 111.113 126.928 111.426C126.087 111.765 125.24 112.1 124.393 112.424C122.63 113.096 120.853 113.739 119.07 114.357C111.927 116.84 104.649 119.005 97.6052 121.732C90.367 124.539 83.4257 127.895 77.2244 132.486C72.3434 136.098 67.9719 140.459 64.2601 145.285C56.8365 154.925 51.7596 166.352 48.6903 178.416C47.1456 184.482 46.0968 190.734 45.4551 197.041C45.1431 200.101 44.9373 203.184 44.8333 206.28C44.7119 209.943 44.7987 213.732 45.8059 217.385C47.574 223.802 53.1829 229.451 59.9228 229.199C67.5655 228.907 72.7267 221.018 71.0264 213.482C69.5214 206.793 62.3648 202.974 56.2662 202.635C48.9926 202.23 42.4677 206.106 38.0569 211.334C29.5825 221.372 28.0732 236.668 32.6453 249.855C33.765 253.086 35.2852 256.19 37.0796 259.135C37.5138 259.849 38.7287 260.032 39.3947 259.995C40.417 259.939 41.5606 259.414 42.3015 258.776C43.6792 257.593 44.9059 255.68 43.7362 253.761L43.7384 253.766Z" fill="#F58906"/>
<path d="M54.1477 278.068C51.0763 269.178 47.2596 260.533 42.8542 252.157L34.0721 253.574C35.296 255.772 36.4909 257.989 37.6478 260.222C38.2023 261.297 38.7468 262.383 39.2823 263.466C39.7671 264.459 39.4814 263.88 39.3763 263.661L39.7303 264.398C39.9654 264.888 40.1969 265.386 40.4257 265.878C42.4116 270.171 44.217 274.533 45.8453 278.956C47.4736 283.379 48.9186 287.866 50.1846 292.393C50.354 293 50.5198 293.616 50.6829 294.225C50.7009 294.292 50.7436 294.461 50.7771 294.596C50.8219 294.768 50.8676 294.94 50.9105 295.112C51.1783 296.163 51.4306 297.213 51.6793 298.271C52.2105 300.553 52.6973 302.854 53.1404 305.16C54.0203 309.774 54.7184 314.422 55.2266 319.089C55.3646 320.346 55.4872 321.603 55.5971 322.865C55.6497 323.404 55.6931 323.939 55.7329 324.483C55.7539 324.718 55.7682 324.95 55.7855 325.18C55.9183 327.508 56.0356 329.836 56.0946 332.168C56.205 336.801 56.1407 341.453 55.8636 346.091C55.7955 347.268 55.7092 348.44 55.5984 349.608C55.5506 350.113 55.4847 350.612 55.4433 351.114C55.4373 351.179 55.4326 351.23 55.4292 351.269C55.4094 351.414 55.388 351.561 55.3688 351.706C55.0536 353.943 54.6302 356.178 54.0446 358.377C53.8881 358.942 53.7252 359.509 53.5532 360.073C53.4958 360.265 53.2686 360.949 53.2132 361.122C53.1549 361.265 52.8821 361.972 52.8031 362.168L52.8028 362.169C52.5762 362.714 52.3496 363.259 52.0984 363.801C51.6488 364.773 51.1564 365.735 50.6156 366.676C50.0055 367.743 50.0731 367.645 49.2813 368.747C46.803 372.173 43.9172 375.037 40.5242 377.402C26.617 387.084 7.81887 386.711 -5.13935 377.177C-7.535 375.417 -9.69276 378.175 -10.2139 380.063C-10.9583 382.758 -9.8233 385.852 -7.53183 387.538C-4.36655 389.866 -0.859096 391.635 2.89453 393.058C10.3717 395.889 19.0247 396.652 27.0648 395.154C35.96 393.496 44.0373 389.103 50.301 383.064C64.0971 369.78 64.6557 350.132 64.1667 333.121C63.6285 314.385 60.282 295.829 54.1477 278.068Z" fill="#F58906"/>
</svg>
