<svg width="394" height="140" viewBox="0 0 394 140" fill="none" xmlns="http://www.w3.org/2000/svg">
<path d="M39.822 1.57495C39.9644 1.35644 40.021 1.09073 39.9743 0.832604C39.9275 0.574508 39.782 0.345737 39.5688 0.195921C39.3556 0.0461051 39.0911 -0.0132358 38.8325 0.0302567C38.5737 0.0737138 38.343 0.217047 38.1856 0.425054C30.4425 10.6997 23.3488 21.5879 17.1169 32.9548C10.9917 44.2304 5.54869 56.0242 2.29756 68.7123C-0.690965 80.946 -2.51046 96.9714 8.78194 107.491C13.135 111.433 18.5325 113.538 23.8818 114.639C68.6512 123.055 105.977 89.4098 128.955 55.9937C130.76 53.1438 132.61 50.2396 133.902 46.8101C135.686 41.5482 135.824 35.6005 133.18 30.3209C130.756 24.7748 123.316 22.0689 117.903 23.7035C106.813 26.7671 99.461 34.7896 92.5127 42.4065C83.3845 53.1625 77.4834 66.428 76.342 80.7183C75.9084 87.7786 76.944 95.72 81.9755 101.894C87.0159 108.163 95.2412 110.402 102.353 110.43C102.558 110.433 102.764 110.435 102.972 110.435L102.588 110.41C128.11 111.846 150.912 101.117 171.293 88.56C174.254 86.689 177.111 84.7898 179.98 82.7776C186.069 78.4698 191.68 73.5199 196.461 67.6054C198.81 64.6164 201.033 61.4539 202.389 57.4035C203.011 55.3909 203.508 52.976 202.618 50.2829C201.729 47.5064 199.104 45.6509 196.904 44.9595C193.557 43.5913 189.076 45.153 187.023 47.5797C177.716 60.4457 180.716 76.7603 190.568 87.0321C196.574 92.7125 203.94 96.201 211.216 99.0461C244.31 110.791 279.36 111.841 313.691 112.308C322.966 112.323 332.201 111.922 341.413 111.498C354.255 110.932 367.161 110.012 379.81 109.935C380.473 109.939 381.108 109.676 381.577 109.206C382.046 108.737 382.31 108.1 382.31 107.435C382.31 106.77 382.046 106.132 381.577 105.663C381.108 105.194 380.473 104.931 379.81 104.935C366.761 105.171 354.014 106.227 341.176 106.908C331.999 107.415 322.804 107.887 313.691 107.937C279.644 107.751 244.611 106.69 212.656 95.3144C205.67 92.6029 198.817 88.9455 193.842 83.7582C185.938 75.4507 185.133 59.7304 191.352 51.7337C192.624 50.467 193.594 50.1538 195.033 50.574C199.767 51.0448 196.405 59.3279 192.428 64.534C188.337 70.1452 183.203 75.1861 177.552 79.4119C174.805 81.4512 172.046 83.3525 169.157 85.1781C149.39 97.5124 125.725 105.854 103.356 104.46C103.279 104.45 103.049 104.435 102.972 104.435C102.792 104.435 102.614 104.433 102.437 104.431C89.29 105.221 80.6002 94.041 81.9832 81.0319C82.7494 68.3556 88.0749 55.5292 96.2304 45.6014C102.662 38.1312 109.993 30.4434 118.89 27.9403C128.341 24.7381 133.509 36.9644 130.098 45.4981C129.138 48.1246 127.312 51.1417 125.595 53.823C103.232 86.6254 65.38 117.244 25.0985 108.832C20.4286 107.834 16.0982 106.031 12.8108 103.045C-2.89911 85.5038 11.0926 56.4872 20.8773 34.9003C26.4814 23.4517 32.8677 12.2821 39.822 1.57495Z" fill="#F58906"/>
<path d="M314.679 134.234C313.946 134.543 313.365 135.13 313.064 135.866C312.764 136.603 312.768 137.429 313.076 138.163C313.384 138.896 313.971 139.477 314.708 139.778C315.445 140.078 316.271 140.074 317.004 139.766C319.266 138.815 321.528 137.865 323.79 136.914C346.255 127.472 368.72 118.03 391.186 108.588C394.253 107.299 393.689 103.247 390.387 102.844C373.198 100.116 354.643 96.5492 339.427 88.8894C338.155 88.04 337.02 86.9676 336.126 85.7181C334.875 83.9746 333.991 81.6665 334.509 79.8538C334.591 79.6091 334.583 79.34 334.477 79.102C334.372 78.8639 334.18 78.6769 333.941 78.5814C333.702 78.4858 333.434 78.4887 333.194 78.5886C332.954 78.6885 332.762 78.8778 332.652 79.111C331.488 82.0225 332.452 84.8684 333.727 87.2259C334.666 88.8903 335.929 90.3608 337.411 91.5774C353.63 101.794 371.368 105.821 389.66 108.8L388.861 103.057C366.396 112.499 343.93 121.941 321.465 131.383C319.203 132.333 316.941 133.284 314.679 134.234Z" fill="#F58906"/>
</svg>
