<svg width="326" height="327" viewBox="0 0 326 327" fill="none" xmlns="http://www.w3.org/2000/svg">
<path d="M-37.2651 319.769C-26.2553 322.761 -14.9062 325.57 -3.74591 324.408C7.65788 323.499 16.0113 315.1 21.8562 305.659C21.8903 305.607 21.9243 305.554 21.9584 305.501C22.1958 305.131 22.4333 304.756 22.6711 304.375L22.5611 304.555C30.8719 289.42 32.5259 272.085 44.3045 256.643C44.6094 256.269 44.9218 255.898 45.2422 255.527C57.2101 241.502 77.1477 233.496 95.8823 239.61C101.431 241.802 106.637 244.675 111.124 249.129C113.312 251.376 115.409 254.173 116.241 257.837C117.134 261.511 115.975 265.589 114.026 268.333C110.872 273.377 104.073 274.531 99.5138 273.451C94.7111 272.464 90.5634 270.259 86.9475 267.18C85.7614 266.147 84.6397 264.995 83.6472 263.64C70.7285 248.883 74.9808 225.204 85.8639 211.12C96.4238 195.673 109.509 180.033 127.62 171.691C149.369 160.781 177.726 159.794 199.403 173.57C213.543 181.191 225.678 200.273 220.126 218.165C219.463 220.616 218.601 222.992 217.286 225.439C201.361 251.428 167.741 247.393 147.789 236.338C120.523 222.17 94.7982 198.471 90.493 166.103C90.1341 162.863 90.0274 159.587 90.2017 156.313C92.0335 128.274 122.502 116.779 145.349 115.23C149.052 115.006 152.797 114.994 156.598 115.346C193.489 120.31 224.001 139.954 258.371 131.686C285.179 125.373 288.718 89.2409 289.477 62.6474C289.496 62.3019 289.532 61.7404 289.578 61.3506C289.873 57.3933 292.837 54.0792 294.094 51.9348C295.321 50.007 294.274 47.7261 292.528 45.1974C288.96 40.2761 284.144 35.8907 279.339 31.5413C250.45 6.31398 215.272 -16.6242 176.703 -16.7483C155.168 -16.7379 130.492 -10.807 125.296 11.3057C123.148 18.8153 133.727 27.3382 142.201 32.8494C151.102 38.4793 161.705 43.8528 170.895 45.9308C190.785 49.0201 210.823 49.1776 230.257 45.3636C244.73 42.5542 258.69 37.3202 271.039 29.6328C281.029 23.4241 289.93 15.6014 297.124 6.48153C300.33 2.42383 303.42 -1.64918 306.135 -5.73782C307.488 -7.78357 308.749 -9.84888 309.664 -11.7425C310.127 -12.7033 310.462 -13.5413 310.718 -14.4041C310.857 -14.8565 310.967 -15.3298 311.243 -16.2473C311.506 -17.1422 312.062 -18.5296 312.749 -19.6176C313.705 -21.2093 315.274 -22.3254 317.088 -22.7352C318.901 -23.1448 320.814 -22.8118 322.402 -21.8122C323.99 -20.8127 325.117 -19.2315 325.532 -17.4192C325.946 -15.607 325.618 -13.7096 324.597 -12.1591C324.575 -12.1329 324.62 -12.313 324.486 -11.9608C324.36 -11.623 324.133 -10.8475 323.855 -10.054C323.293 -8.43078 322.568 -6.86774 321.828 -5.49004C320.346 -2.74475 318.748 -0.404272 317.115 1.8714C313.858 6.36812 310.453 10.4869 306.957 14.5823C298.421 24.5788 288.123 32.9372 276.863 39.3924C262.936 47.3872 247.599 52.5178 231.976 55.0471C211.255 58.4616 189.906 57.6144 169.662 53.922C157.297 50.7459 147.935 45.2348 138.186 38.9117C133.426 35.6593 128.833 32.1055 124.802 27.5807C121.038 23.2477 116.568 16.7361 119.093 9.1837C125.48 -16.1148 155.229 -22.7614 176.639 -22.1619C217.798 -21.3078 252.898 2.59772 282.264 28.2817C287.158 32.7644 291.991 37.0959 296.076 42.7217C297.061 44.1553 298.028 45.7123 298.602 47.6738C299.242 49.5902 298.923 52.289 297.885 53.9912C295.809 57.35 294.098 59.1104 293.857 61.8524C293.829 62.0731 293.795 62.5688 293.778 62.8828C292.324 89.2949 293.16 127.397 259.837 138.335C223.711 148.921 187.747 129.616 155.642 126.022C152.55 125.764 149.267 125.78 146.009 125.979C125.43 127.344 98.8557 134.704 96.8124 156.771C96.561 159.633 96.5975 162.523 96.9153 165.392C100.62 194.237 126.144 215.731 152.144 227.178C171.347 236.465 196.849 235.502 205.935 219.322C206.604 218.059 207.214 216.433 207.641 214.83C211.059 202.935 204.461 191.128 192.869 183.948C175.308 172.092 151.592 171.612 131.709 180.435C115.286 187.134 102.798 200.645 91.9639 215.429C81.6472 228.593 77.8804 246.66 88.8765 259.833C89.4983 260.691 90.2983 261.532 91.1849 262.302C96.3705 266.964 105.849 269.377 108.416 264.597C113.572 257.838 102.271 249.832 93.2497 246.757C78.9256 242.462 61.6929 249.218 51.763 261.156C51.4939 261.468 51.2318 261.781 50.976 262.094C41.3603 274.204 35.8499 292.035 26.428 306.664L26.318 306.845C26.044 307.22 25.7708 307.59 25.4983 307.955C25.4591 308.008 25.42 308.06 25.3809 308.112C18.8053 317.405 8.55414 326.378 -3.56625 326.489C-15.3551 326.971 -26.4366 323.432 -37.2651 319.769Z" fill="#F58906"/>
</svg>
