<svg width="171" height="230" viewBox="0 0 171 230" fill="none" xmlns="http://www.w3.org/2000/svg">
<path d="M217.176 224.92C216.184 216.982 212.172 209.572 208.225 202.586C201.929 192.127 193.841 181.95 181.813 176.488C169.705 170.612 154.329 174.69 144.431 182.788C136.565 188.848 130.366 196.284 124.813 204.155C113.185 221.942 88.4176 223.119 76.0751 205.906C76.0728 205.903 76.0704 205.901 76.0681 205.898C65.8325 194.639 66.121 178.825 70.1103 163.182C74.3149 143.408 80.9275 122.572 71.2264 99.3637C71.2216 99.3543 71.2169 99.345 71.2122 99.3357C59.3594 78.1413 38.7887 66.5242 24.1698 55.0974L23.7111 54.6572C13.9604 46.6328 6.11013 32.0251 12.4749 21.6094C19.0811 10.9413 35.2949 6.66406 49.5835 4.32266C57.4214 3.08639 65.3765 2.40635 73.5231 2.03191C65.4151 1.14349 57.3944 0.637224 49.272 0.800098C34.4236 1.52465 17.027 2.34821 5.1845 16.691C-6.17977 33.164 3.84817 52.7859 15.7094 63.9133L15.2507 63.473C32.6956 78.6507 49.8561 89.6029 58.7406 105.696C58.7439 105.703 58.7471 105.709 58.7504 105.716C65.3313 120.135 61.259 141.379 57.2225 160.146C53.0734 176.796 53.0599 199.45 66.997 213.754C67 213.757 67.0029 213.761 67.0059 213.764C74.9749 223.022 87.6437 230.817 101.298 229.543C114.817 228.412 126.014 219.882 132.68 209.401C137.513 201.779 142.893 194.668 149.451 189.017C157.886 181.539 169.122 177.563 179.85 181.492C190.551 185.219 199.445 194.08 206.46 203.738C210.927 210.191 215.543 217.158 217.176 224.92Z" fill="#F58906"/>
</svg>
