<svg width="140" height="233" viewBox="0 0 140 233" fill="none" xmlns="http://www.w3.org/2000/svg">
<path d="M3.16151 141.788C9.15004 133.274 16.0147 125.143 22.8922 117.265C55.9412 80.0831 91.562 45.2074 127.091 10.6068L117.884 4.07437C98.2745 41.4444 77.3619 78.655 56.8731 115.969C55.767 117.976 54.6779 119.959 53.595 121.938C35.2519 155.509 17.6896 189.448 1.2052 223.985C-1.93191 230.338 6.0628 235.97 11.0178 230.905C36.2495 203.807 61.6347 177.016 85.0028 147.691L84.9533 147.752C96.9229 132.295 108.83 116.786 120.676 101.226C127.052 92.8503 133.41 84.4602 139.749 76.0553C132.69 83.8657 125.649 91.691 118.625 99.5311C105.577 114.097 92.5905 128.715 79.6662 143.383C79.6565 143.396 79.6261 143.432 79.6167 143.445C55.1707 170.418 28.2331 196.331 2.30694 222.422L12.1195 229.343C29.5454 195.669 47.6246 162.06 65.8768 128.658C66.9549 126.688 68.0374 124.712 69.1349 122.712C89.623 85.2219 109.691 47.8252 128.21 9.02964C131.067 3.03046 123.694 -2.20915 119.004 2.49717C84.5792 38.6595 50.9749 75.6745 20.8227 115.594C14.5689 124.035 8.36656 132.765 3.16151 141.788Z" fill="#F58906"/>
</svg>
