<svg width="309" height="216" viewBox="0 0 309 216" fill="none" xmlns="http://www.w3.org/2000/svg">
<g filter="url(#filter0_d_432_114)">
<path d="M10 16C10 10.4772 14.4772 6 20 6H137.073C139.597 6 142.028 6.95453 143.878 8.67207L166.122 29.3279C167.972 31.0455 170.403 32 172.927 32H289C294.523 32 299 36.4772 299 42V54C299 59.5228 294.523 64 289 64H20C14.4771 64 10 59.5228 10 54V16Z" fill="#EBB600"/>
<rect x="26" y="39" width="255" height="149" rx="15" fill="#BAEFF4"/>
<path d="M42.5555 84C42.3955 84 42.2688 83.9667 42.1755 83.9C42.0955 83.82 42.0355 83.6933 41.9955 83.52L39.2555 70.64C39.2422 70.5867 39.2288 70.54 39.2155 70.5C39.2155 70.4467 39.2155 70.4133 39.2155 70.4C39.2155 70.2933 39.2555 70.2 39.3355 70.12C39.4155 70.04 39.5088 70 39.6155 70H40.0355C40.2888 70 40.4355 70.1 40.4755 70.3L42.8155 81.7L45.2955 73.56C45.3355 73.44 45.4022 73.3333 45.4955 73.24C45.6022 73.1467 45.7422 73.1 45.9155 73.1H46.3555C46.5422 73.1 46.6822 73.1467 46.7755 73.24C46.8688 73.3333 46.9355 73.44 46.9755 73.56L49.4555 81.7L51.7955 70.3C51.8355 70.1 51.9822 70 52.2355 70H52.6555C52.7622 70 52.8555 70.04 52.9355 70.12C53.0155 70.2 53.0555 70.2933 53.0555 70.4C53.0555 70.4133 53.0488 70.4467 53.0355 70.5C53.0355 70.54 53.0288 70.5867 53.0155 70.64L50.2755 83.52C50.2355 83.6933 50.1688 83.82 50.0755 83.9C49.9955 83.9667 49.8755 84 49.7155 84H49.4155C49.2555 84 49.1222 83.96 49.0155 83.88C48.9222 83.8 48.8488 83.68 48.7955 83.52L46.1355 75.08L43.4755 83.52C43.4222 83.68 43.3422 83.8 43.2355 83.88C43.1422 83.96 43.0155 84 42.8555 84H42.5555Z" fill="#2D3748"/>
<defs>
<filter id="filter0_d_432_114" x="0" y="0" width="309" height="216" filterUnits="userSpaceOnUse" color-interpolation-filters="sRGB">
<feFlood flood-opacity="0" result="BackgroundImageFix"/>
<feColorMatrix in="SourceAlpha" type="matrix" values="0 0 0 0 0 0 0 0 0 0 0 0 0 0 0 0 0 0 127 0" result="hardAlpha"/>
<feOffset dy="4"/>
<feGaussianBlur stdDeviation="5"/>
<feComposite in2="hardAlpha" operator="out"/>
<feColorMatrix type="matrix" values="0 0 0 0 0 0 0 0 0 0 0 0 0 0 0 0 0 0 0.25 0"/>
<feBlend mode="normal" in2="BackgroundImageFix" result="effect1_dropShadow_432_114"/>
<feBlend mode="normal" in="SourceGraphic" in2="effect1_dropShadow_432_114" result="shape"/>
</filter>
</defs>
</svg>
