<svg width="391" height="390" viewBox="0 0 391 390" fill="none" xmlns="http://www.w3.org/2000/svg">
<g clip-path="url(#clip0_496_1766)">
<g filter="url(#filter0_d_496_1766)">
<path d="M376.299 322.069L260.069 339.568C213.961 346.51 176.454 342.845 161.026 338.028C160.671 337.918 138.128 324.709 110.917 305.655C89.1142 290.389 61.9156 265.265 60.0305 261.928C48.6694 241.797 42.9925 229.206 37.8218 194.861L17.0764 57.0679L329.324 10.0578L376.299 322.069Z" fill="url(#paint0_linear_496_1766)"/>
<path d="M101.451 301.294C72.4521 279.357 60.0369 261.933 60.0369 261.933C60.0369 261.933 81.8338 284.205 112.334 268.204C112.334 268.204 129.215 321.776 161.033 338.033C161.033 338.033 130.451 323.237 101.452 301.3L101.451 301.294Z" fill="url(#paint1_linear_496_1766)"/>
<path d="M22.4164 92.4983L334.658 45.489L329.324 10.0577L17.082 57.0669L22.4164 92.4983Z" fill="url(#paint2_linear_496_1766)"/>
</g>
<g filter="url(#filter1_n_496_1766)">
</g>
</g>
<defs>
<filter id="filter0_d_496_1766" x="6.07642" y="7.05762" width="375.222" height="349.354" filterUnits="userSpaceOnUse" color-interpolation-filters="sRGB">
<feFlood flood-opacity="0" result="BackgroundImageFix"/>
<feColorMatrix in="SourceAlpha" type="matrix" values="0 0 0 0 0 0 0 0 0 0 0 0 0 0 0 0 0 0 127 0" result="hardAlpha"/>
<feOffset dx="-3" dy="5"/>
<feGaussianBlur stdDeviation="4"/>
<feComposite in2="hardAlpha" operator="out"/>
<feColorMatrix type="matrix" values="0 0 0 0 0 0 0 0 0 0 0 0 0 0 0 0 0 0 0.25 0"/>
<feBlend mode="normal" in2="BackgroundImageFix" result="effect1_dropShadow_496_1766"/>
<feBlend mode="normal" in="SourceGraphic" in2="effect1_dropShadow_496_1766" result="shape"/>
</filter>
<filter id="filter1_n_496_1766" x="90.4661" y="116.833" width="206.587" height="126.349" filterUnits="userSpaceOnUse" color-interpolation-filters="sRGB">
<feFlood flood-opacity="0" result="BackgroundImageFix"/>
<feBlend mode="normal" in="SourceGraphic" in2="BackgroundImageFix" result="shape"/>
<feTurbulence type="fractalNoise" baseFrequency="2 2" stitchTiles="stitch" numOctaves="3" result="noise" seed="471" />
<feComponentTransfer in="noise" result="coloredNoise1">
<feFuncR type="linear" slope="2" intercept="-0.5" />
<feFuncG type="linear" slope="2" intercept="-0.5" />
<feFuncB type="linear" slope="2" intercept="-0.5" />
<feFuncA type="discrete" tableValues="0 0 0 1 1 1 1 1 1 1 1 1 1 1 1 1 1 1 1 1 1 1 1 1 1 1 1 1 1 1 1 1 1 1 1 1 1 1 1 1 1 1 1 1 1 1 0 0 0 0 0 0 0 0 0 0 0 0 0 0 0 0 0 0 0 0 0 0 0 0 0 0 0 0 0 0 0 0 0 0 0 0 0 0 0 0 0 0 0 0 0 0 0 0 0 0 0 0 0 0 "/>
</feComponentTransfer>
<feComposite operator="in" in2="shape" in="coloredNoise1" result="noise1Clipped" />
<feComponentTransfer in="noise1Clipped" result="color1">
<feFuncA type="table" tableValues="0 0.3" />
</feComponentTransfer>
<feMerge result="effect1_noise_496_1766">
<feMergeNode in="shape" />
<feMergeNode in="color1" />
</feMerge>
</filter>
<linearGradient id="paint0_linear_496_1766" x1="112.375" y1="303.225" x2="327.367" y2="12.981" gradientUnits="userSpaceOnUse">
<stop stop-color="#B93AFF"/>
<stop offset="0.48" stop-color="#743ABE"/>
<stop offset="1" stop-color="#5D20A8"/>
</linearGradient>
<linearGradient id="paint1_linear_496_1766" x1="126.072" y1="279.236" x2="107.035" y2="304.683" gradientUnits="userSpaceOnUse">
<stop stop-color="#0D023F"/>
<stop offset="1" stop-color="#1F185E"/>
</linearGradient>
<linearGradient id="paint2_linear_496_1766" x1="32.7301" y1="244.224" x2="247.723" y2="-46.0142" gradientUnits="userSpaceOnUse">
<stop stop-color="#4C1490"/>
<stop offset="1" stop-color="#4C1490"/>
</linearGradient>
<clipPath id="clip0_496_1766">
<rect width="343.224" height="342.413" fill="white" transform="translate(0.544189 51.0977) rotate(-8.5618)"/>
</clipPath>
</defs>
</svg>
