<svg width="309" height="6" viewBox="0 0 309 6" fill="none" xmlns="http://www.w3.org/2000/svg">
<path d="M308.479 5.65648C308.611 5.65588 308.738 5.60331 308.831 5.50975C308.925 5.4162 308.978 5.28944 308.978 5.15724C308.978 5.02504 308.926 4.89811 308.832 4.80428C308.739 4.71044 308.612 4.65748 308.48 4.65648C303.37 4.61787 298.242 4.57928 293.105 4.5405C243.042 4.13414 192.947 3.87034 142.914 2.96909C142.808 2.96702 142.703 2.96495 142.597 2.96288C100.52 2.13199 58.4843 1.21854 16.3662 0.411646C11.3054 0.317399 6.07165 0.212968 1.01885 0.140383C0.886719 0.138732 0.75897 0.18902 0.663738 0.280855C0.568476 0.372684 0.513512 0.498421 0.510923 0.630525C0.508334 0.76263 0.55833 0.890424 0.649922 0.985914C0.741483 1.08141 0.867164 1.13666 0.999261 1.14019C6.04164 1.28496 11.2777 1.4579 16.3356 1.61663C58.4403 2.95311 100.473 4.13145 142.558 4.96249C142.663 4.96457 142.769 4.96663 142.874 4.9687C192.94 5.86931 243.034 5.85851 293.103 5.71726C298.24 5.69998 303.368 5.67965 308.479 5.65648Z" fill="#F58906"/>
</svg>
