<svg width="153" height="309" viewBox="0 0 153 309" fill="none" xmlns="http://www.w3.org/2000/svg">
<path d="M5.3549 11.2866C13.0269 11.1449 21.347 12.9144 27.9486 15.975C31.5789 17.6579 34.9591 19.7275 38.0575 22.1263C38.8351 22.7277 40.5663 24.2925 41.6997 25.4414C42.3395 26.086 42.9499 26.7524 43.5384 27.4353C43.8293 27.7764 44.1129 28.1231 44.3966 28.4696C44.7464 28.9132 44.7693 28.9394 44.466 28.5425C44.645 28.7828 44.8167 29.0287 44.9892 29.2685C46.0259 30.744 46.9215 32.2867 47.738 33.8775C48.408 35.182 47.3793 32.9098 47.9099 34.2695C48.0728 34.6789 48.2496 35.0834 48.4052 35.4983C48.7622 36.4294 49.1764 37.4261 49.3475 38.4145C49.1114 37.025 49.341 38.4626 49.3886 38.6979C49.4708 39.1188 49.5456 39.5451 49.6074 39.9703C49.6691 40.3955 49.7048 40.8186 49.7592 41.2492C49.9325 42.6638 49.7977 40.0777 49.771 41.5059C49.7558 42.3567 49.7284 43.2004 49.6732 44.054C49.5795 45.4399 49.9289 43.0348 49.6206 44.3965C49.4932 44.9517 49.3919 45.5092 49.245 46.0629C49.1296 46.4792 49.0078 46.8949 48.8672 47.303C49.2257 46.3047 48.6946 47.6536 48.6482 47.7531C48.2984 48.5391 47.8987 49.3026 47.4362 50.0426C47.9077 49.2852 47.147 50.4259 47.1071 50.4773C46.8505 50.8147 46.5809 51.151 46.2998 51.4741C46.0187 51.7973 45.7253 52.1133 45.4205 52.4162C45.3064 52.5282 44.2371 53.509 44.6308 53.1832C41.8863 55.4768 38.8704 56.7918 35.2456 56.7406C35.8649 56.7504 34.5029 56.6655 34.5551 56.6699C34.1332 56.616 33.7152 56.5319 33.2989 56.4358C32.8826 56.3397 32.4834 56.2146 32.0793 56.0769C32.761 56.3111 31.5192 55.8225 31.5135 55.8159C30.7712 55.4427 30.0444 55.0038 29.4137 54.4878C30.1334 55.0782 29.1448 54.1789 29.0926 54.1258C28.8948 53.9265 27.9995 52.6273 28.5843 53.5837C28.4215 53.3204 28.017 52.8905 27.9856 52.5835L28.2319 53.1095C28.1313 52.8758 28.0444 52.6371 27.965 52.393L28.1193 53.0635C28.0667 52.8155 28.0207 52.5682 27.9885 52.3159L28.0155 52.9999C28.0103 52.7438 28.0116 52.4883 28.0325 52.2344L27.9435 52.799C27.9913 52.5413 28.0456 52.2842 28.1122 52.0342C28.3351 50.9149 27.6317 52.7604 28.2261 51.776C28.2937 51.6661 28.9418 50.5767 28.3741 51.4112C28.6624 50.9852 29.0063 50.5882 29.3615 50.2044C29.3844 50.182 30.3232 49.2876 29.7184 49.8086C30.0241 49.5484 30.3665 49.3095 30.7 49.0882C31.3889 48.6292 32.1228 48.2287 32.8829 47.8792C34.036 47.356 35.9017 46.887 37.6706 46.7446C39.2796 46.613 40.9829 46.812 42.9461 47.2886C45.0374 47.7944 46.9422 48.5582 48.8227 49.5026C55.8044 53.0275 62.2499 57.7426 68.3069 62.4491C73.454 66.4578 79.3576 71.7661 84.2753 76.9909C86.7889 79.6627 89.1901 82.4346 91.4469 85.2977C91.7183 85.6372 91.9823 85.9822 92.2528 86.3277C93.1373 87.4616 91.7018 85.5628 92.5504 86.7181C93.0638 87.4189 93.578 88.1137 94.084 88.82C95.1673 90.3421 96.2065 91.897 97.2098 93.4731C99.1168 96.4832 100.86 99.5828 102.419 102.77C102.502 102.942 103.108 104.235 102.576 103.076C102.756 103.462 102.929 103.842 103.102 104.228C103.447 105 103.779 105.777 104.104 106.553C104.801 108.243 105.444 109.947 106.031 111.677C106.545 113.205 107.018 114.749 107.444 116.3C107.537 116.637 107.65 116.975 107.717 117.316C107.452 115.893 107.707 117.29 107.765 117.545C107.993 118.502 108.194 119.462 108.382 120.427C108.707 122.086 108.971 123.758 109.182 125.438C109.286 126.28 109.377 127.128 109.455 127.974C109.491 128.397 109.526 128.826 109.561 129.249C109.604 129.911 109.609 129.978 109.576 129.433C109.594 129.794 109.611 130.161 109.622 130.521C109.787 135.045 109.56 139.585 109.078 144.109C108.649 148.144 107.958 152.304 107.079 156.88C105.348 165.936 103.164 174.93 101.614 184.014C100.093 192.882 99.1836 201.819 99.0199 210.759C98.6951 228.62 101.124 246.38 106.145 263.476C110.703 279 116.984 296.598 133.362 304.553C140.799 308.171 149.393 309.769 157.923 308.653C165.632 307.644 173.231 304.41 179.158 299.653C182.134 297.263 184.785 294.633 186.962 291.597C188.538 289.4 188.655 286.269 187.189 284.051C186.163 282.497 183.402 280.638 181.753 282.933C172.841 295.363 155.955 301.225 140.536 296.56C136.773 295.419 133.323 293.678 130.075 291.31C129.035 290.546 129.125 290.615 128.26 289.829C127.494 289.137 126.766 288.412 126.074 287.666C125.688 287.25 125.322 286.823 124.957 286.397C124.798 286.207 124.14 285.396 124.281 285.579C124.422 285.761 123.801 284.923 123.663 284.723C123.342 284.263 123.028 283.799 122.72 283.334C121.544 281.518 120.505 279.623 119.562 277.692C119.459 277.477 119.349 277.26 119.253 277.045C119.294 277.134 119.557 277.728 119.321 277.179C119.136 276.737 118.929 276.306 118.738 275.864C118.294 274.84 117.872 273.806 117.464 272.761C115.85 268.65 114.425 264.463 113.163 260.242C112.526 258.1 111.944 255.945 111.375 253.785C111.214 253.162 111.387 253.84 111.414 253.94C111.355 253.692 111.289 253.443 111.231 253.188C111.107 252.685 110.989 252.188 110.878 251.685C110.606 250.512 110.348 249.34 110.103 248.162C109.19 243.794 108.455 239.386 107.894 234.956C107.617 232.741 107.381 230.518 107.19 228.298C107.104 227.268 107.024 226.245 106.957 225.217C106.939 224.96 106.927 224.703 106.909 224.446C106.976 225.419 106.911 224.525 106.902 224.348C106.87 223.749 106.839 223.144 106.814 222.545C106.628 218.08 106.615 213.599 106.787 209.122C106.959 204.644 107.309 200.17 107.842 195.705C107.905 195.192 107.968 194.674 108.036 194.163C108.071 193.904 108.105 193.651 108.14 193.392C108.109 193.621 108.021 194.228 108.167 193.188C108.333 192.051 108.506 190.91 108.691 189.775C109.081 187.416 109.509 185.06 109.97 182.713C111.807 173.306 114.08 163.955 115.587 154.502C117.129 144.784 117.882 135.042 116.81 125.323C115.969 117.673 113.981 110.104 111.064 102.96C105.242 88.6813 95.9665 75.8321 84.7136 64.7755C79.0553 59.2141 72.8778 54.0773 66.3809 49.3518C63.2288 47.0581 59.9839 44.866 56.6591 42.7768C52.725 40.3073 48.5203 37.9853 43.8779 36.7584C35.7222 34.601 25.9586 37.1404 21.935 44.682C17.379 53.2376 22.7259 63.922 32.0634 66.8672C40.3487 69.486 49.0966 64.0852 53.3583 57.6228C58.4409 49.9152 58.3588 40.2974 55.4471 32.1321C49.8602 16.4484 34.0722 5.03828 16.7142 1.6331C12.4616 0.798308 8.09304 0.483235 3.72336 0.569777C2.66419 0.589677 1.68902 1.80358 1.30403 2.55617C0.713131 3.7113 0.559371 5.29908 0.785387 6.51732C1.20129 8.78024 2.5144 11.3443 5.36143 11.2871L5.3549 11.2866Z" fill="#F58906"/>
</svg>
