<svg width="304" height="98" viewBox="0 0 304 98" fill="none" xmlns="http://www.w3.org/2000/svg">
<path d="M31.5074 1.61882C31.658 1.40772 31.7278 1.14647 31.6947 0.887252C31.6617 0.628088 31.5296 0.393042 31.3262 0.232795C31.1228 0.0725489 30.8633 -0.000836968 30.6036 0.0277567C30.3439 0.0563007 30.1062 0.18533 29.9363 0.381185C23.7256 7.56848 17.995 15.285 12.9686 23.4544C8.04387 31.5664 3.58424 40.1565 1.24389 49.7643C-1.38721 58.7337 0.239909 72.8278 11.0923 77.4293C13.699 78.7078 16.2589 79.4415 19.004 79.9523C53.3547 85.764 83.2908 62.4959 101.866 36.8753C102.695 35.5849 103.484 34.3688 104.16 32.7204C105.677 28.7585 105.719 24.0268 103.164 20.134C100.61 16.0437 95.0196 14.9664 91.0553 16.0139C82.8365 18.1181 77.0211 23.543 71.5995 28.8527C64.4935 36.2934 59.5488 45.7468 58.8149 56.4394C58.5235 61.6914 59.9015 67.8916 64.4105 71.9523C68.8893 76.0131 74.7248 77.0375 79.9505 77.0604L79.6081 77.0408C81.4223 77.249 83.1877 77.2833 84.9214 77.2507C103.527 76.5025 120.512 68.9781 135.87 59.8386C137.058 59.1245 138.2 58.4235 139.375 57.6848C143.943 54.786 148.229 51.4869 152.013 47.4209C153.872 45.3561 155.684 43.184 156.891 40.1363C157.439 38.6232 157.964 36.6332 157.077 34.3447C156.137 32.0098 153.967 30.8419 152.34 30.3443C150.073 29.5406 147.021 30.0498 145.125 31.5273C143.171 32.9683 142.054 34.8067 141.259 36.6232C137.904 45.1104 140.141 54.9665 146.962 60.798C153.436 66.0467 160.997 68.3859 168.36 70.5377C192.58 76.9457 217.507 77.8157 242.116 78.0862C249.685 78.1076 257.214 77.8157 264.723 77.5175C274.185 77.1571 283.71 76.5852 293 76.5661C293.663 76.5714 294.299 76.3086 294.768 75.8393C295.237 75.3699 295.5 74.7318 295.5 74.0661C295.5 73.4003 295.237 72.7622 294.768 72.2928C294.299 71.8235 293.663 71.5607 293 71.5661C283.363 71.7426 273.969 72.4502 264.508 72.9263C257.03 73.3166 249.534 73.6871 242.116 73.7361C217.727 73.7147 192.871 72.9014 169.444 66.6875C162.371 64.6631 155.26 61.7535 150.284 57.0744C145.561 52.6101 144.44 44.6783 146.773 38.9908C147.269 37.8221 147.959 36.8287 148.645 36.3056C149.345 35.7958 149.823 35.6692 150.698 35.8653C151.126 35.9767 151.439 36.1121 151.64 36.2362C151.837 36.3626 151.894 36.4221 151.958 36.5176C152.099 36.6716 152.162 37.4519 151.862 38.3857C151.278 40.2835 149.892 42.3849 148.373 44.2747C145.265 48.0976 141.388 51.4952 137.186 54.2833C136.062 55.024 134.962 55.7175 133.81 56.4101C118.888 65.3232 101.637 70.6241 84.7997 71.2519C83.2581 71.2826 81.6945 71.2473 80.2929 71.0913C80.2243 71.0836 80.0196 71.0715 79.9505 71.0717C70.7498 71.5589 63.6732 65.8095 64.3701 56.6401C64.706 47.8836 68.9554 38.8454 75.0642 32.1906C79.9987 27.0074 85.6318 21.8874 92.0074 20.1922C95.1408 19.397 98.1789 20.0612 99.7738 22.4468C101.412 24.7947 101.562 28.348 100.42 31.275C100.014 32.301 99.2693 33.5341 98.5195 34.6846C80.729 59.4005 50.4286 79.8768 20.1007 74.0841C17.773 73.6345 15.7071 73.0117 13.7528 72.0514C6.16322 68.7492 4.73495 59.603 6.673 50.9566C8.48843 42.2563 12.3485 33.7229 16.6445 25.5552C21.032 17.3034 26.0647 9.27559 31.5074 1.61882Z" fill="#F58906"/>
<path d="M247.697 92.0679C246.963 92.3762 246.382 92.9633 246.082 93.6999C245.781 94.4366 245.785 95.2625 246.094 95.996C246.402 96.7295 246.989 97.3105 247.726 97.6111C248.462 97.9118 249.288 97.9075 250.022 97.5993C251.582 96.9434 253.143 96.2875 254.703 95.6316C270.203 89.1171 285.704 82.6025 301.204 76.0879C301.204 76.0879 301.204 76.0879 301.204 76.0879C304.27 74.7991 303.707 70.747 300.405 70.3443C288.716 68.5004 275.787 66.1112 265.444 61.2226C264.599 60.6935 263.837 60.0153 263.226 59.2175C262.367 58.1098 261.769 56.6007 262.027 55.5203C262.101 55.2763 262.091 55.0099 261.985 54.7744C261.88 54.5389 261.69 54.3542 261.454 54.2599C261.218 54.1656 260.953 54.1683 260.715 54.2662C260.476 54.3641 260.285 54.55 260.17 54.7775C259.266 56.9567 259.944 59.0035 260.827 60.7253C261.482 61.938 262.373 63.0143 263.428 63.9107C274.775 71.3559 286.886 74.2057 299.678 76.3002L298.879 70.5566C298.879 70.5566 298.879 70.5566 298.879 70.5566C283.379 77.0712 267.879 83.5857 252.379 90.1003C250.818 90.7562 249.257 91.4121 247.697 92.0679Z" fill="#F58906"/>
</svg>
